<svg xmlns="http://www.w3.org/2000/svg" width="41.846" height="38.906"><g data-name="Сгруппировать 108"><g data-name="Сгруппировать 97" fill="none" stroke="#fff" stroke-linecap="round" stroke-linejoin="round" stroke-width="1.7"><path data-name="Контур 47" d="M32.84 23.226h2.416v2.443a5.213 5.213 0 01-10.426 0v-2.443h2.416"/><path data-name="Контур 48" d="M30.043 28.463h0a2.8 2.8 0 01-2.8-2.8v-4.885a2.8 2.8 0 012.8-2.8h0a2.8 2.8 0 012.8 2.8v4.885a2.8 2.8 0 01-2.8 2.8z"/><path data-name="Линия 16" d="M30.043 30.879v2.6"/></g><g data-name="Сгруппировать 101"><g data-name="Сгруппировать 100"><g data-name="Сгруппировать 99"><g data-name="Сгруппировать 98" fill="none" stroke="#fff" stroke-linecap="round" stroke-linejoin="round" stroke-width="1.7"><path data-name="Контур 49" d="M26.322 10.639a6.866 6.866 0 017.442 0"/><path data-name="Контур 50" d="M28.53 12.688a2.788 2.788 0 013.026 0"/></g></g></g><path data-name="Контур 51" d="M30.202 14.503a.158.158 0 11-.159-.158.159.159 0 01.159.158z" fill="none" stroke="#fff" stroke-linecap="round" stroke-linejoin="round" stroke-width="1.7"/></g><g data-name="Сгруппировать 103"><g data-name="Сгруппировать 102" fill="none" stroke="#fff" stroke-linecap="round" stroke-linejoin="round" stroke-width="1.7"><path data-name="Контур 52" d="M17.365 20.058h-3.781a2.721 2.721 0 01-1.841-.714l-1.265-1.157"/><path data-name="Контур 53" d="M5.322 22.977l3.588.494a1.84 1.84 0 011.574 1.82v.908H5.322"/><path data-name="Линия 17" d="M2.54 20.786v8.557"/><path data-name="Контур 54" d="M2.54 20.786l-1.425-1.548a.831.831 0 01-.265-.609v-1.688a.831.831 0 01.832-.832h3.251l2.815-5.4a2.952 2.952 0 012.353-1.17h7.264"/><path data-name="Контур 55" d="M7.765 29.343v.319a2.613 2.613 0 01-2.613 2.612h0a2.613 2.613 0 01-2.612-2.612v-.319"/><path data-name="Линия 18" d="M17.365 29.343H5.322"/><path data-name="Линия 19" d="M15.308 26.199h2.057"/><path data-name="Линия 20" d="M7.903 16.109h9.462"/></g></g><g data-name="Сгруппировать 107"><g data-name="Сгруппировать 106"><g data-name="Сгруппировать 105"><g data-name="Сгруппировать 104" fill="none" stroke="#fff" stroke-linecap="round" stroke-linejoin="round" stroke-width="1.7"><path data-name="Контур 56" d="M40.996 28.213v7.6a2.244 2.244 0 01-2.244 2.244H21.335a2.244 2.244 0 01-2.245-2.244V3.794A2.943 2.943 0 0122.033.851h16.02a2.943 2.943 0 012.943 2.943v24.42"/><path data-name="Контур 57" d="M24.908.85v1.438A1.592 1.592 0 0026.5 3.88h7.087a1.591 1.591 0 001.591-1.592V.85"/></g></g></g></g></g></svg>