<svg xmlns="http://www.w3.org/2000/svg" width="38.389" height="35.049"><g data-name="Сгруппировать 88"><g data-name="Сгруппировать 80"><g data-name="Сгруппировать 79"><g data-name="Сгруппировать 76"><g data-name="Сгруппировать 75"><path data-name="Контур 30" d="M23.431 13.374a56.754 56.754 0 015.841 3.594 4.486 4.486 0 01.983 1.117 4.971 4.971 0 01.722 2.639v4.058" fill="none" stroke="#fff" stroke-linecap="round" stroke-linejoin="round" stroke-width="1.7"/></g></g><g data-name="Сгруппировать 78"><g data-name="Сгруппировать 77"><path data-name="Контур 31" d="M14.955 13.374a56.752 56.752 0 00-5.841 3.594 4.488 4.488 0 00-.983 1.117 4.97 4.97 0 00-.722 2.639v4.058H30.98" fill="none" stroke="#fff" stroke-linecap="round" stroke-linejoin="round" stroke-width="1.7"/></g></g></g><path data-name="Контур 32" d="M25.131 8.219c0 4.07-2.656 7.37-5.933 7.37s-5.934-3.3-5.934-7.37S15.921.85 19.198.85s5.933 3.3 5.933 7.369z" fill="none" stroke="#fff" stroke-linecap="round" stroke-linejoin="round" stroke-width="1.7"/><path data-name="Контур 33" d="M30.98 23.421v1.36h0v-1.36z" fill="none" stroke="#fff" stroke-linecap="round" stroke-linejoin="round" stroke-width="1.7"/></g><g data-name="Сгруппировать 85" fill="none" stroke="#fff" stroke-linecap="round" stroke-linejoin="round" stroke-width="1.7"><g data-name="Сгруппировать 82"><path data-name="Контур 34" d="M31.169.85h6.37v6.37"/><g data-name="Сгруппировать 81"><path data-name="Контур 35" d="M7.22 34.197H.85v-6.37"/><path data-name="Контур 36" d="M37.539 27.828v6.37h-6.37"/><path data-name="Контур 37" d="M.85 7.22V.85h6.37"/></g></g><g data-name="Сгруппировать 83"><path data-name="Линия 7" d="M37.539 10.389h0"/><path data-name="Линия 8" d="M37.539 12.721V23.23"/><path data-name="Линия 9" d="M37.539 24.399h0"/></g><g data-name="Сгруппировать 84"><path data-name="Линия 10" d="M.85 10.389h0"/><path data-name="Линия 11" d="M.85 12.721V23.23"/><path data-name="Линия 12" d="M.85 24.399h0"/></g></g><g data-name="Сгруппировать 87"><g data-name="Сгруппировать 86" fill="none" stroke="#fff" stroke-linecap="round" stroke-linejoin="round" stroke-width="1.7"><path data-name="Линия 13" d="M25.022 28.118H13.368"/><path data-name="Линия 14" d="M22.163 31.197h-5.937"/><path data-name="Линия 15" d="M20.204 34.039h-2.019"/></g></g></g></svg>