<svg xmlns="http://www.w3.org/2000/svg" width="21.675" height="35.627"><g data-name="Сгруппировать 95"><path data-name="Контур 38" d="M20.825 25.802v6.929a2.047 2.047 0 01-2.047 2.046H2.896A2.046 2.046 0 01.85 32.731v-29.2A2.684 2.684 0 013.533.847h14.608a2.685 2.685 0 012.684 2.684v22.268" fill="none" stroke="#fff" stroke-linecap="round" stroke-linejoin="round" stroke-width="1.7"/><path data-name="Контур 39" d="M6.155.85v1.312a1.451 1.451 0 001.451 1.451h6.462a1.451 1.451 0 001.451-1.451V.85" fill="none" stroke="#fff" stroke-linecap="round" stroke-linejoin="round" stroke-width="1.7"/><g data-name="Сгруппировать 93"><g data-name="Сгруппировать 92"><g data-name="Сгруппировать 91"><g data-name="Сгруппировать 90" fill="none" stroke="#fff" stroke-linecap="round" stroke-linejoin="round" stroke-width="1.7"><path data-name="Контур 40" d="M7.012 17.816a7.056 7.056 0 017.651 0"/><path data-name="Контур 41" d="M5.054 15.379a10.672 10.672 0 0111.566 0"/><path data-name="Контур 42" d="M9.281 19.922a2.872 2.872 0 013.112 0"/></g></g></g><path data-name="Контур 43" d="M11 21.789a.163.163 0 11-.163-.163.163.163 0 01.163.163z" fill="none" stroke="#fff" stroke-linecap="round" stroke-linejoin="round" stroke-width="1.7"/></g><g data-name="Сгруппировать 94" fill="none" stroke="#fff" stroke-linecap="round" stroke-linejoin="round" stroke-width="1.7"><path data-name="Контур 44" d="M7.988 30.595a.333.333 0 11-.332-.333.333.333 0 01.332.333z"/><path data-name="Контур 45" d="M11.173 30.595a.333.333 0 11-.333-.333.333.333 0 01.333.333z"/><path data-name="Контур 46" d="M14.351 30.595a.333.333 0 11-.332-.333.333.333 0 01.332.333z"/></g></g></svg>