<svg xmlns="http://www.w3.org/2000/svg" width="77.243" height="57.498"><g data-name="Сгруппировать 71" transform="translate(-251.244 -4841.696)"><g data-name="Сгруппировать 62"><path data-name="Прямоугольник 59" fill="#fff" d="M283.355 4883.632h2.263v13.987h-2.263z"/></g><g data-name="Сгруппировать 63"><path data-name="Прямоугольник 60" fill="#fff" d="M298.469 4876.895h2.263v11.055h-2.263z"/></g><g data-name="Сгруппировать 64"><path data-name="Прямоугольник 61" fill="#fff" d="M314.608 4873.042h2.263v13.263h-2.263z"/></g><g data-name="Сгруппировать 65"><path data-name="Прямоугольник 62" fill="#fff" d="M269.528 4879.093h2.263v8.857h-2.263z"/></g><g data-name="Сгруппировать 66"><path data-name="Контур 25" d="M293.995 4885.9h-19.018a1.13 1.13 0 01-1.1-1.381l9.51-41.936a1.13 1.13 0 011.1-.882 1.132 1.132 0 011.1.882l9.508 41.936a1.131 1.131 0 01-1.1 1.381zm-17.6-2.263h16.185l-8.092-35.687z" fill="#fff"/></g><g data-name="Сгруппировать 67"><path data-name="Контур 26" d="M306.73 4879.158h-14.262a1.133 1.133 0 01-1.1-1.382l7.133-31.452a1.13 1.13 0 011.1-.882 1.13 1.13 0 011.1.882l7.131 31.452a1.133 1.133 0 01-1.1 1.382zm-12.846-2.263h11.43l-5.714-25.2z" fill="#fff"/></g><g data-name="Сгруппировать 68"><path data-name="Контур 27" d="M276.007 4881.356h-10.7a1.133 1.133 0 01-1.1-1.382l5.35-23.589a1.131 1.131 0 011.1-.882 1.13 1.13 0 011.1.882l5.348 23.589a1.133 1.133 0 01-1.1 1.382zm-9.281-2.263h7.864l-3.931-17.341z" fill="#fff"/></g><circle data-name="Эллипс 1" cx="11.747" cy="11.747" r="11.747" transform="translate(303.992 4850.116)" fill="none" stroke="#fff" stroke-miterlimit="10" stroke-width="2"/><g data-name="Сгруппировать 70"><g data-name="Сгруппировать 69"><path data-name="Прямоугольник 63" fill="#fff" d="M259.661 4871.147h2.263v15.158h-2.263z"/></g><circle data-name="Эллипс 2" cx="7.768" cy="7.768" r="7.768" transform="translate(253.024 4855.989)" fill="none" stroke="#fff" stroke-miterlimit="10" stroke-width="2"/></g><path data-name="Контур 28" d="M251.316 4886.116s23.684-1.705 32.968 11.368c0 0 9.853-13.452 43.011-11.937" fill="none" stroke="#fff" stroke-miterlimit="10" stroke-width="2"/></g></svg>