<svg xmlns="http://www.w3.org/2000/svg" width="42.134" height="67.859"><g data-name="Сгруппировать 30" fill="#fff"><path data-name="Контур 9" d="M10.575 42.094l-.893 1.248c-.3.423-7.433 10.438-7.565 16.152a7.779 7.779 0 007.872 8.363c3.379.079 8.455-1.986 8.594-7.992.13-5.635-6.853-16.058-7.15-16.5zm-.536 23.631a5.7 5.7 0 01-5.79-6.182c.092-3.954 4.376-10.806 6.276-13.658 2.236 3.558 6.009 10.337 5.925 13.93-.115 4.967-4.667 5.95-6.411 5.91z"/><path data-name="Контур 10" d="M42.098 15.552a1.064 1.064 0 00-.316-.754 1.133 1.133 0 00-.755-.31l-9.058.027a9.788 9.788 0 00-5.246-2.305h-.031l.117-5.047 1.777.041a1.015 1.015 0 00.029.121 5.161 5.161 0 004.522 2.965h.128a5.147 5.147 0 00-.028-10.293 5.1 5.1 0 00-5.066 4.746 1.018 1.018 0 00.038.318l-4.736-.11a.982.982 0 00.022-.2 5.11 5.11 0 10-5.2 5.573h.142a5.154 5.154 0 004.632-2.992 1.059 1.059 0 00.063-.261l1.546.036-.118 5.087a.968.968 0 00-.107-.007 9.734 9.734 0 00-5.425 2.356l-7.436.02a.987.987 0 00-.262.037 9.178 9.178 0 00-8.579 8.475 1.108 1.108 0 00-.049.32l.023 7.984H1.067a1.069 1.069 0 00-1.065 1.07l.015 6.543a1.066 1.066 0 001.042 1.064h.028l18.318-.052a1.07 1.07 0 001.065-1.07l-.02-6.543a1.062 1.062 0 00-.316-.753 1.158 1.158 0 00-.755-.31H17.72v-1.792h1.5a10.075 10.075 0 006.33 2.31 9.837 9.837 0 006.311-2.345l9.211-.026a1.068 1.068 0 001.065-1.07zM33.243 2.134h.077a3.013 3.013 0 01-.061 6.025 2.974 2.974 0 01-2.713-1.742 1.054 1.054 0 00-.541-.517 1.01 1.01 0 00-.093-.249 1.063 1.063 0 00.385-.735 2.974 2.974 0 012.946-2.782zM21.132 6.441a3 3 0 11-2.718-4.265h.082a2.97 2.97 0 012.874 2.765.869.869 0 01.185 1.035 1.06 1.06 0 00-.423.465zM31.451 27.38a1.074 1.074 0 00-.718.282 7.625 7.625 0 01-10.4.026 1.115 1.115 0 00-.719-.276l-2.97.009a1.069 1.069 0 00-1.063 1.07l.011 3.927a1.067 1.067 0 00.315.753 1.094 1.094 0 00.755.311l1.66-.006.013 4.409-16.185.046-.01-4.409h1.658a1.07 1.07 0 001.066-1.07l-.026-8.821a1.1 1.1 0 00.032-.213 6.949 6.949 0 016.762-6.685.931.931 0 00.192-.025l7.625-.02a1.073 1.073 0 00.736-.3 7.609 7.609 0 014.5-2.072 1.057 1.057 0 00.575-.25.847.847 0 00.65.016 1.06 1.06 0 00.558.245 7.645 7.645 0 014.364 2.03 1.112 1.112 0 00.737.293l8.4-.026.029 10.733z"/></g></svg>