<svg xmlns="http://www.w3.org/2000/svg" width="48.043" height="35.544"><g data-name="Сгруппировать 114" transform="translate(-1133.841 -5395.232)" fill="none" stroke="#fff" stroke-linecap="round" stroke-linejoin="round" stroke-width="1.7"><path data-name="Прямоугольник 73" d="M1134.691 5396.082h46.343v33.844h-46.343z"/><path data-name="Прямоугольник 74" d="M1140.917 5400.308h33.662v25.392h-33.662z"/><path data-name="Линия 26" d="M1178.383 5408.278v9.453"/><path data-name="Линия 27" d="M1157.752 5411.202h-.009"/><path data-name="Линия 28" d="M1144.721 5404.112h3.689"/><path data-name="Линия 29" d="M1152.675 5400.846v24.854"/><g data-name="Сгруппировать 112"><path data-name="Линия 30" d="M1148.41 5409.685v4.359"/><path data-name="Линия 31" d="M1143.766 5409.685h4.644"/><path data-name="Линия 32" d="M1143.569 5409.685l1.648-1.648"/><path data-name="Линия 33" d="M1145.217 5411.333l-1.648-1.648"/></g><g data-name="Сгруппировать 113"><path data-name="Линия 34" d="M1137.813 5417.73h-.009"/><path data-name="Линия 35" d="M1137.813 5414.68h-.009"/><path data-name="Линия 36" d="M1137.813 5411.629h-.009"/><path data-name="Линия 37" d="M1137.813 5408.578h-.009"/></g><circle data-name="Эллипс 3" cx="3.003" cy="3.003" r="3.003" transform="translate(1143.562 5417.73)"/><path data-name="Линия 38" d="M1161.696 5411.202v-2.651"/><path data-name="Линия 39" d="M1157.752 5415.924v-2.651"/><path data-name="Линия 40" d="M1161.696 5425.369v-1.515"/><path data-name="Линия 41" d="M1161.696 5408.551h7.666"/><path data-name="Линия 42" d="M1153.136 5415.925h4.616"/><path data-name="Линия 43" d="M1169.362 5402.556v5.995"/><path data-name="Контур 58" d="M1161.552 5417.73l-2.075 5.029 2.075-.55 2.075.55z"/><path data-name="Контур 59" d="M1159.084 5405.449a1.336 1.336 0 10-2.673 0 17.285 17.285 0 001.337 2.84 17.292 17.292 0 001.336-2.84z"/></g></svg>