<svg xmlns="http://www.w3.org/2000/svg" xmlns:xlink="http://www.w3.org/1999/xlink" width="75.989" height="76.318"><defs><linearGradient id="a" x1="-.092" y1=".5" x2="3.714" y2=".5" gradientUnits="objectBoundingBox"><stop offset=".02" stop-color="#0087d0"/><stop offset=".196" stop-color="#129bdb"/><stop offset=".222" stop-color="#1d9dc7"/><stop offset=".277" stop-color="#3ba396"/><stop offset=".353" stop-color="#6aad47"/><stop offset=".411" stop-color="#91b508"/><stop offset=".469" stop-color="#94b607"/><stop offset=".517" stop-color="#9ebb07"/><stop offset=".563" stop-color="#b0c305"/><stop offset=".606" stop-color="#c8ce03"/><stop offset=".648" stop-color="#e8dd01"/><stop offset=".673" stop-color="#ffe800"/><stop offset=".71" stop-color="#ecdf03"/><stop offset=".783" stop-color="#bbca0c"/><stop offset=".887" stop-color="#6ea91a"/><stop offset=".899" stop-color="#64a51c"/></linearGradient><linearGradient id="b" x1="-3.198" y1=".5" x2=".607" y2=".5" xlink:href="#a"/><linearGradient id="c" x1="-1.908" y1=".5" x2="2.448" y2=".5" xlink:href="#a"/><linearGradient id="d" x1="-4.431" y1=".5" x2="4.492" y2=".5" xlink:href="#a"/><linearGradient id="e" x1="0" y1=".5" x2="1" y2=".5" xlink:href="#a"/></defs><g data-name="Сгруппировать 189"><path data-name="Контур 312" d="M2696.062 54.72a9.188 9.188 0 10-10.526 9.091v10.011h2.674V63.811a9.191 9.191 0 007.852-9.091z" fill="url(#a)" transform="translate(-2677.163 -23.525)"/><path data-name="Контур 313" d="M2753.152 54.72a9.189 9.189 0 10-10.525 9.091v10.011h2.674V63.811a9.19 9.19 0 007.851-9.091z" fill="url(#b)" transform="translate(-2677.163 -23.525)"/><path data-name="Контур 314" d="M2720.482 41.979l-5.747-3.678-.082-.052-.083.052-5.747 3.678-2.2 1.407v17.482h6.748v12.954h2.674V60.868h6.635V43.386zm0 16.727h-11.659V44.558l5.83-3.73 5.829 3.73z" fill="url(#c)" transform="translate(-2677.163 -23.525)"/><path data-name="Контур 315" d="M2710.728 46.686V53.8h7.838v-7.114zm3.367 5.956h-2v-4.8h2zm3.108 0h-2v-4.8h2z" fill="url(#d)" transform="translate(-2677.163 -23.525)"/><g data-name="Сгруппировать 188" fill="url(#e)" transform="translate(-2677.163 -23.525)"><path data-name="Контур 316" d="M2699.007 83.9h-.344c-3.564-.1-5.866-1.719-7.9-3.151-1.989-1.4-3.707-2.614-6.482-2.614a11.409 11.409 0 00-5.673 1.931l-1.447-2.034a13.814 13.814 0 017.12-2.393c3.566 0 5.88 1.631 7.921 3.07 1.911 1.348 3.716 2.62 6.526 2.7 3.271.087 5.6-1.352 8.068-2.875 2.226-1.373 4.529-2.794 7.495-2.979 3.343-.21 6.112 1.464 8.79 3.081 2.36 1.426 4.589 2.772 7.053 2.772 2.844 0 4.859-1.345 6.993-2.768 2.207-1.474 4.49-3 7.691-3a11.342 11.342 0 017.728 2.8l-1.764 1.765a8.858 8.858 0 00-5.964-2.066c-2.444 0-4.234 1.194-6.306 2.577-2.239 1.494-4.777 3.188-8.378 3.188-3.159 0-5.795-1.592-8.343-3.131-2.458-1.485-4.782-2.886-7.344-2.727-2.343.146-4.285 1.344-6.34 2.612-2.472 1.516-5.267 3.242-9.1 3.242z"/><path data-name="Контур 317" d="M2699.007 91.871c-.114 0-.228 0-.344-.005-3.564-.095-5.866-1.718-7.9-3.151-1.989-1.4-3.707-2.614-6.482-2.614a11.4 11.4 0 00-5.673 1.932L2677.163 86a13.8 13.8 0 017.12-2.394c3.566 0 5.88 1.631 7.921 3.07 1.911 1.348 3.716 2.621 6.526 2.7 3.271.083 5.6-1.352 8.068-2.875 2.226-1.373 4.529-2.793 7.495-2.979 3.343-.21 6.112 1.464 8.79 3.082 2.36 1.425 4.589 2.771 7.053 2.771 2.844 0 4.859-1.344 6.993-2.768 2.207-1.473 4.49-3 7.691-3a11.335 11.335 0 017.728 2.8l-1.764 1.765a8.856 8.856 0 00-5.964-2.067c-2.444 0-4.234 1.194-6.306 2.577-2.239 1.495-4.777 3.188-8.378 3.188-3.159 0-5.795-1.591-8.343-3.131-2.458-1.484-4.779-2.886-7.344-2.727-2.343.147-4.285 1.345-6.34 2.613-2.474 1.522-5.269 3.246-9.102 3.246z"/><path data-name="Контур 318" d="M2699.007 99.843c-.114 0-.228 0-.344-.005-3.564-.1-5.866-1.718-7.9-3.15-1.989-1.4-3.707-2.614-6.482-2.614A11.409 11.409 0 002678.61 96l-1.447-2.034a13.8 13.8 0 017.12-2.394c3.566 0 5.88 1.632 7.921 3.071 1.911 1.347 3.716 2.62 6.526 2.695 3.271.086 5.6-1.351 8.068-2.874 2.226-1.374 4.528-2.794 7.495-2.979 3.343-.211 6.112 1.463 8.79 3.081 2.36 1.426 4.589 2.772 7.053 2.772 2.844 0 4.859-1.345 6.993-2.769 2.207-1.473 4.49-3 7.691-3a11.341 11.341 0 017.728 2.8l-1.764 1.765a8.858 8.858 0 00-5.964-2.066c-2.444 0-4.234 1.194-6.306 2.577-2.239 1.494-4.777 3.188-8.378 3.188-3.159 0-5.795-1.592-8.343-3.131-2.458-1.485-4.779-2.885-7.344-2.727-2.343.146-4.285 1.344-6.34 2.612-2.474 1.532-5.269 3.256-9.102 3.256z"/></g><text data-name="Лес &amp; Море" transform="translate(.337 13)" fill="#64a51c" font-size="11.968" font-family="SegoeUI, Segoe UI"><tspan x="0" y="0">Лес &amp; Море</tspan></text></g></svg>