<svg version="1.1" id="Layer_1" xmlns="http://www.w3.org/2000/svg" x="0" y="0" viewBox="0 0 141.73 141.73" xml:space="preserve"><style>.st0{fill:#fff}</style><path class="st0" d="M42.55 56.19c0-7.51-6.09-13.6-13.6-13.6s-13.6 6.09-13.6 13.6c0 6.84 5.05 12.5 11.62 13.46v14.82h3.96V69.64c6.57-.95 11.62-6.61 11.62-13.45zm84.51 0c0-7.51-6.09-13.6-13.6-13.6s-13.6 6.09-13.6 13.6c0 6.84 5.05 12.5 11.62 13.46v14.82h3.96V69.64c6.57-.95 11.62-6.61 11.62-13.45zM78.7 37.33l-8.51-5.44-.12-.08-.12.08-8.51 5.44-3.25 2.08v25.88h9.98v19.17h3.96V65.29h9.82V39.41l-3.25-2.08zm0 24.76H61.45V41.15l8.63-5.52 8.63 5.52v20.94z"/><path class="st0" d="M64.26 44.3v10.53h11.6V44.3h-11.6zm4.98 8.81h-2.97V46h2.97v7.11zm4.6 0h-2.97V46h2.97v7.11zM46.91 99.38c-.17 0-.34 0-.51-.01-5.28-.14-8.68-2.54-11.69-4.66-2.94-2.08-5.49-3.87-9.59-3.87-4.3 0-8.36 2.83-8.4 2.86l-2.14-3.01c.2-.14 5.03-3.54 10.54-3.54 5.28 0 8.7 2.41 11.72 4.54 2.83 1.99 5.5 3.88 9.66 3.99 4.84.13 8.29-2 11.94-4.25 3.3-2.03 6.7-4.14 11.09-4.41 4.95-.31 9.05 2.17 13.01 4.56 3.49 2.11 6.79 4.1 10.44 4.1 4.21 0 7.19-1.99 10.35-4.1 3.27-2.18 6.65-4.44 11.38-4.44 7.22 0 11.27 3.97 11.44 4.14l-2.61 2.61c-.12-.12-3.21-3.06-8.83-3.06-3.62 0-6.27 1.77-9.33 3.81-3.31 2.21-7.07 4.72-12.4 4.72-4.68 0-8.58-2.36-12.35-4.63-3.64-2.2-7.08-4.27-10.87-4.04-3.47.22-6.34 1.99-9.39 3.87-3.65 2.27-7.79 4.82-13.46 4.82z"/><path class="st0" d="M46.91 111.18c-.17 0-.34 0-.51-.01-5.28-.14-8.68-2.54-11.69-4.66-2.94-2.08-5.49-3.87-9.59-3.87-4.3 0-8.36 2.83-8.4 2.86l-2.14-3.01c.2-.14 5.03-3.54 10.54-3.54 5.28 0 8.7 2.41 11.72 4.54 2.83 1.99 5.5 3.88 9.66 3.99 4.84.12 8.29-2 11.94-4.25 3.3-2.03 6.7-4.14 11.09-4.41 4.95-.31 9.05 2.17 13.01 4.56 3.49 2.11 6.79 4.1 10.44 4.1 4.21 0 7.19-1.99 10.35-4.1 3.27-2.18 6.65-4.44 11.38-4.44 7.22 0 11.27 3.97 11.44 4.14l-2.61 2.61c-.12-.12-3.21-3.06-8.83-3.06-3.62 0-6.27 1.77-9.33 3.81-3.31 2.21-7.07 4.72-12.4 4.72-4.68 0-8.58-2.36-12.35-4.63-3.64-2.2-7.07-4.27-10.87-4.04-3.47.22-6.34 1.99-9.39 3.87-3.65 2.27-7.79 4.82-13.46 4.82z"/><path class="st0" d="M46.91 122.98c-.17 0-.34 0-.51-.01-5.28-.14-8.68-2.54-11.69-4.66-2.94-2.08-5.49-3.87-9.59-3.87-4.3 0-8.36 2.83-8.4 2.86l-2.14-3.01c.2-.14 5.03-3.54 10.54-3.54 5.28 0 8.7 2.41 11.72 4.54 2.83 1.99 5.5 3.88 9.66 3.99 4.84.13 8.29-2 11.94-4.25 3.3-2.03 6.7-4.14 11.09-4.41 4.95-.31 9.05 2.17 13.01 4.56 3.49 2.11 6.79 4.1 10.44 4.1 4.21 0 7.19-1.99 10.35-4.1 3.27-2.18 6.65-4.44 11.38-4.44 7.22 0 11.27 3.97 11.44 4.14l-2.61 2.61c-.12-.12-3.21-3.06-8.83-3.06-3.62 0-6.27 1.77-9.33 3.81-3.31 2.21-7.07 4.72-12.4 4.72-4.68 0-8.58-2.36-12.35-4.63-3.64-2.2-7.07-4.27-10.87-4.04-3.47.22-6.34 1.99-9.39 3.87-3.65 2.27-7.79 4.82-13.46 4.82zM27.97 16.86v12.4h-3.45v-9.62h-3.56l-.07 2.02c-.06 1.77-.2 3.21-.43 4.32-.23 1.11-.62 1.97-1.18 2.58-.56.61-1.34.91-2.36.91-.47 0-1-.07-1.59-.21l.2-2.87c.15.04.31.05.48.05.46 0 .82-.18 1.06-.55.25-.37.42-.88.53-1.53.11-.66.18-1.51.21-2.56l.18-4.94h9.98zm12.14 8.45h-6.98c.14.5.42.88.82 1.14.41.27.92.4 1.53.4.46 0 .86-.07 1.2-.2.34-.13.68-.34 1.02-.64l1.77 1.84c-.93 1.04-2.3 1.56-4.09 1.56-1.12 0-2.11-.21-2.96-.64A4.801 4.801 0 0130.44 27c-.47-.76-.7-1.61-.7-2.57 0-.94.23-1.79.68-2.54.45-.75 1.08-1.34 1.89-1.76.8-.43 1.71-.64 2.71-.64.96 0 1.82.2 2.6.59.78.4 1.4.97 1.85 1.72.45.75.68 1.64.68 2.67.01.03-.01.3-.04.84zm-6.37-2.98c-.35.29-.57.7-.66 1.2h3.93c-.09-.51-.32-.91-.66-1.2-.35-.29-.78-.44-1.3-.44-.53 0-.96.14-1.31.44zm10.16 6.45a4.808 4.808 0 01-1.96-1.77c-.47-.76-.7-1.61-.7-2.57 0-.96.23-1.81.7-2.56s1.12-1.33 1.96-1.75c.84-.42 1.79-.63 2.85-.63 1.09 0 2.03.23 2.82.7s1.35 1.11 1.68 1.94l-2.6 1.33c-.44-.86-1.07-1.29-1.91-1.29-.6 0-1.1.2-1.5.6-.4.4-.59.96-.59 1.66 0 .72.2 1.28.59 1.69.4.41.89.61 1.5.61.84 0 1.48-.43 1.91-1.29l2.6 1.33c-.33.83-.89 1.47-1.68 1.94-.79.47-1.73.7-2.82.7-1.06 0-2.02-.22-2.85-.64zm23.82.69l-1.4-1.24c-.58.41-1.22.73-1.93.95-.71.22-1.45.33-2.23.33-.93 0-1.78-.15-2.53-.45-.76-.3-1.35-.72-1.77-1.25-.42-.53-.64-1.13-.64-1.79 0-.78.21-1.46.62-2.05.41-.58 1.07-1.12 1.97-1.6-.79-.8-1.19-1.64-1.19-2.5 0-.63.17-1.18.51-1.67.34-.48.83-.86 1.46-1.12.63-.27 1.36-.4 2.19-.4 1.14 0 2.07.27 2.77.81.7.54 1.05 1.26 1.05 2.17 0 .64-.19 1.2-.56 1.7-.37.5-.95.96-1.74 1.4l1.81 1.61c.24-.52.42-1.11.55-1.77l2.71.82c-.24 1.06-.62 2-1.15 2.82l1.31 1.17-1.81 2.06zm-3.42-3.05l-2.67-2.37c-.39.24-.67.48-.85.74-.18.25-.27.54-.27.86 0 .38.17.69.51.93.34.24.8.36 1.38.36.69-.01 1.32-.18 1.9-.52zm-2.33-7.27c-.2.17-.29.39-.29.66 0 .2.06.39.17.58.11.18.32.42.63.72.47-.25.81-.48 1-.7.19-.22.29-.45.29-.68 0-.26-.09-.46-.26-.61-.17-.15-.42-.22-.74-.22-.33-.01-.6.08-.8.25zm25.68 10.11l-.02-6.57-3.19 5.35h-1.56l-3.19-5.21v6.43h-3.22v-12.4h2.89l4.36 7.16 4.25-7.16h2.89l.04 12.4h-3.25zm7.63-.48a4.817 4.817 0 01-1.94-1.77c-.47-.76-.7-1.61-.7-2.57 0-.94.23-1.79.7-2.55a4.76 4.76 0 011.93-1.76c.82-.42 1.75-.63 2.79-.63s1.97.21 2.8.63c.83.42 1.47 1 1.93 1.75.46.75.69 1.6.69 2.56s-.23 1.81-.69 2.57c-.46.76-1.1 1.35-1.93 1.77s-1.76.64-2.8.64c-1.02 0-1.95-.22-2.78-.64zm4.24-2.65c.38-.41.57-.97.57-1.69 0-.71-.19-1.26-.57-1.66-.38-.4-.86-.6-1.45-.6s-1.07.2-1.45.6c-.38.4-.57.96-.57 1.66 0 .72.19 1.28.57 1.69s.86.61 1.45.61 1.07-.2 1.45-.61zm13.97-6.02c.71.41 1.28.99 1.7 1.74s.63 1.62.63 2.61c0 .99-.21 1.86-.63 2.61-.42.75-.99 1.33-1.7 1.74-.71.41-1.51.61-2.38.61-1.12 0-2.01-.34-2.67-1.01v4.29h-3.37V19.65h3.21v.96c.63-.74 1.57-1.12 2.83-1.12.87.01 1.66.21 2.38.62zm-1.64 6.02c.38-.41.57-.97.57-1.67s-.19-1.27-.57-1.67c-.38-.41-.86-.61-1.45-.61s-1.07.2-1.45.61c-.38.41-.57.97-.57 1.67s.19 1.27.57 1.67c.38.41.86.61 1.45.61s1.07-.2 1.45-.61zm15.25-.82h-6.98c.14.5.42.88.82 1.14.41.27.92.4 1.53.4.46 0 .86-.07 1.2-.2.34-.13.68-.34 1.02-.64l1.77 1.84c-.93 1.04-2.3 1.56-4.09 1.56-1.12 0-2.11-.21-2.96-.64a4.801 4.801 0 01-1.98-1.77c-.47-.76-.7-1.61-.7-2.57 0-.94.23-1.79.68-2.54.45-.75 1.08-1.34 1.89-1.76.8-.43 1.71-.64 2.71-.64.96 0 1.82.2 2.6.59.78.4 1.4.97 1.85 1.72.45.75.68 1.64.68 2.67.01.03-.01.3-.04.84zm-6.37-2.98c-.35.29-.57.7-.66 1.2H124c-.09-.51-.32-.91-.66-1.2-.35-.29-.78-.44-1.3-.44s-.96.14-1.31.44z"/></svg>