<svg xmlns="http://www.w3.org/2000/svg" width="118.292" height="61.886"><g data-name="Сгруппировать 190"><path data-name="Контур 319" d="M49.989 20.012l-1.968-1.139a.453.453 0 00-.445 0l-1.968 1.139a.448.448 0 00-.219.382v2.272a.461.461 0 00.219.389l1.968 1.132a.448.448 0 00.445 0l1.968-1.132a.46.46 0 00.219-.389v-2.243a.446.446 0 00-.219-.382" fill="#8f257a"/><path data-name="Контур 320" d="M49.989 32.552l-1.968-1.132a.448.448 0 00-.445 0l-1.968 1.132a.461.461 0 00-.219.389v2.272a.448.448 0 00.219.382l1.968 1.139a.452.452 0 00.445 0l1.968-1.139a.445.445 0 00.254-.382v-2.272a.456.456 0 00-.219-.389" fill="#8f257a"/><path data-name="Контур 321" d="M67.009 32.552l-1.967-1.132a.449.449 0 00-.446 0l-1.968 1.132a.46.46 0 00-.219.389v2.272a.447.447 0 00.219.382l1.968 1.139a.454.454 0 00.446 0l1.967-1.139a.445.445 0 00.219-.382v-2.272a.46.46 0 00-.219-.389" fill="#329027"/><path data-name="Контур 322" d="M55.664 45.095l-1.974-1.14a.441.441 0 00-.439 0l-1.967 1.14a.44.44 0 00-.227.382v2.271a.448.448 0 00.227.39l1.967 1.132a.441.441 0 00.439 0l1.974-1.132a.462.462 0 00.22-.39v-2.267a.447.447 0 00-.22-.382" fill="#329027"/><path data-name="Контур 323" d="M48.021 12.638a.453.453 0 00-.445 0l-1.968 1.14a.438.438 0 00-.219.382v2.272a.448.448 0 00.219.382l1.968 1.139a.453.453 0 00.445 0l1.968-1.139a.447.447 0 00.219-.382v-2.307a.44.44 0 00-.219-.383z" fill="#008bd0"/><path data-name="Контур 324" d="M55.664 57.638l-1.974-1.125a.441.441 0 00-.439 0l-1.967 1.132a.438.438 0 00-.227.39v2.271a.44.44 0 00.227.382l1.967 1.14a.441.441 0 00.439 0l1.974-1.14a.448.448 0 00.22-.382v-2.279a.448.448 0 00-.22-.389" fill="#329027"/><path data-name="Контур 325" d="M55.664 51.368l-1.974-1.139a.441.441 0 00-.439 0l-1.967 1.139a.442.442 0 00-.227.383v2.271a.437.437 0 00.227.389l1.967 1.133a.441.441 0 00.439 0l1.974-1.154a.447.447 0 00.22-.389v-2.25a.448.448 0 00-.22-.383" fill="#329027"/><path data-name="Контур 326" d="M44.309 32.552l-1.967-1.132a.449.449 0 00-.446 0l-1.967 1.132a.46.46 0 00-.219.389v2.272a.445.445 0 00.219.382l1.967 1.139a.454.454 0 00.446 0l1.967-1.139a.432.432 0 00.22-.382v-2.272a.438.438 0 00-.22-.389" fill="#8f257a"/><path data-name="Контур 327" d="M44.309 45.095l-1.967-1.14a.454.454 0 00-.446 0l-1.967 1.14a.444.444 0 00-.219.382v2.271a.463.463 0 00.219.39l1.967 1.132a.454.454 0 00.446 0l1.967-1.132a.44.44 0 00.22-.39v-2.267a.431.431 0 00-.22-.382" fill="#329027"/><path data-name="Контур 328" d="M44.309 38.822l-1.967-1.133a.454.454 0 00-.446 0l-1.967 1.133a.437.437 0 00-.219.382v2.271a.445.445 0 00.219.383l1.967 1.139a.454.454 0 00.446 0l1.967-1.139a.434.434 0 00.22-.383v-2.264a.423.423 0 00-.22-.382" fill="#8f257a"/><path data-name="Контур 329" d="M44.309 26.282l-1.967-1.132a.426.426 0 00-.446 0l-1.967 1.132a.445.445 0 00-.219.382v2.251a.445.445 0 00.219.382l1.967 1.132a.426.426 0 00.446 0l1.967-1.134a.433.433 0 00.22-.382v-2.249a.432.432 0 00-.22-.382" fill="#008bd0"/><path data-name="Контур 330" d="M44.309 20.012l-1.967-1.139a.454.454 0 00-.446 0l-1.967 1.139a.445.445 0 00-.219.382v2.272a.46.46 0 00.219.389l1.967 1.132a.449.449 0 00.446 0l1.967-1.132a.438.438 0 00.22-.389v-2.243a.431.431 0 00-.22-.382" fill="#008bd0"/><path data-name="Контур 331" d="M49.989 45.095l-1.968-1.14a.453.453 0 00-.445 0l-1.967 1.14a.447.447 0 00-.219.382v2.271a.464.464 0 00.219.39l1.968 1.132a.452.452 0 00.445 0l1.968-1.132a.463.463 0 00.219-.39v-2.267a.446.446 0 00-.219-.382" fill="#329027"/><path data-name="Контур 332" d="M49.989 51.368l-1.968-1.139a.452.452 0 00-.445 0l-1.968 1.139a.448.448 0 00-.219.383v2.271a.445.445 0 00.219.389l1.968 1.133a.452.452 0 00.445 0l1.968-1.154a.446.446 0 00.219-.389v-2.25a.447.447 0 00-.219-.383" fill="#329027"/><path data-name="Контур 333" d="M49.989 38.822l-1.968-1.133a.452.452 0 00-.445 0l-1.968 1.133a.437.437 0 00-.219.382v2.271a.448.448 0 00.219.383l1.968 1.139a.452.452 0 00.445 0l1.968-1.139a.447.447 0 00.219-.383v-2.264a.438.438 0 00-.219-.382" fill="#8f257a"/><path data-name="Контур 334" d="M61.332 32.552l-1.967-1.132a.449.449 0 00-.446 0l-1.967 1.132a.46.46 0 00-.219.389v2.272a.445.445 0 00.219.382l1.967 1.139a.454.454 0 00.446 0l1.967-1.139a.439.439 0 00.234-.382v-2.272a.446.446 0 00-.226-.389" fill="#329027"/><path data-name="Контур 335" d="M61.332 26.282l-1.967-1.132a.426.426 0 00-.446 0l-1.967 1.132a.445.445 0 00-.219.382v2.251a.445.445 0 00.219.382l1.967 1.132a.426.426 0 00.446 0l1.967-1.132a.439.439 0 00.234-.382v-2.251a.439.439 0 00-.226-.382" fill="#329027"/><path data-name="Контур 336" d="M67.009 57.638l-1.967-1.125a.454.454 0 00-.446 0l-1.968 1.132a.447.447 0 00-.219.39v2.271a.447.447 0 00.219.382l1.968 1.14a.454.454 0 00.446 0l1.967-1.14a.445.445 0 00.219-.382v-2.279a.447.447 0 00-.219-.389" fill="#329027"/><path data-name="Контур 337" d="M61.332 20.012l-1.967-1.139a.454.454 0 00-.446 0l-1.967 1.139a.445.445 0 00-.219.382v2.272a.46.46 0 00.219.389l1.967 1.132a.449.449 0 00.446 0l1.967-1.132a.445.445 0 00.227-.389v-2.243a.437.437 0 00-.227-.382" fill="#329027"/><path data-name="Контур 338" d="M67.009 38.822l-1.967-1.133a.454.454 0 00-.446 0l-1.968 1.133a.437.437 0 00-.219.382v2.271a.447.447 0 00.219.383l1.968 1.139a.454.454 0 00.446 0l1.967-1.139a.445.445 0 00.219-.383v-2.264a.438.438 0 00-.219-.382" fill="#329027"/><path data-name="Контур 339" d="M67.009 51.368l-1.967-1.139a.454.454 0 00-.446 0l-1.968 1.139a.447.447 0 00-.219.383v2.271a.446.446 0 00.219.389l1.968 1.133a.454.454 0 00.446 0l1.967-1.154a.446.446 0 00.219-.389v-2.25a.445.445 0 00-.219-.383" fill="#329027"/><path data-name="Контур 340" d="M67.009 45.095l-1.967-1.14a.454.454 0 00-.446 0l-1.968 1.14a.446.446 0 00-.219.382v2.271a.463.463 0 00.219.39l1.968 1.132a.454.454 0 00.446 0l1.967-1.128a.463.463 0 00.219-.39v-2.271a.444.444 0 00-.219-.386" fill="#329027"/><path data-name="Контур 341" d="M55.664 26.282L53.69 25.15a.41.41 0 00-.439 0l-1.967 1.132a.44.44 0 00-.227.382v2.251a.44.44 0 00.227.382l1.967 1.132a.41.41 0 00.439 0l1.974-1.132a.446.446 0 00.241-.382v-2.251a.446.446 0 00-.22-.382" fill="#329027"/><path data-name="Контур 342" d="M55.664 20.012l-1.974-1.139a.441.441 0 00-.439 0l-1.967 1.139a.44.44 0 00-.227.382v2.272a.445.445 0 00.227.389l1.967 1.132a.436.436 0 00.439 0l1.974-1.132a.459.459 0 00.22-.389v-2.243a.447.447 0 00-.22-.382" fill="#329027"/><path data-name="Контур 343" d="M55.664 38.822l-1.974-1.133a.441.441 0 00-.439 0l-1.967 1.133a.43.43 0 00-.227.382v2.271a.442.442 0 00.227.383l1.967 1.139a.441.441 0 00.439 0l1.974-1.139a.448.448 0 00.22-.383v-2.264a.439.439 0 00-.22-.382" fill="#8f257a"/><path data-name="Контур 344" d="M55.664 32.552L53.69 31.42a.436.436 0 00-.439 0l-1.967 1.132a.445.445 0 00-.227.389v2.272a.44.44 0 00.227.382l1.967 1.139a.436.436 0 00.439 0l1.974-1.139a.446.446 0 00.241-.382v-2.272a.459.459 0 00-.22-.389" fill="#329027"/><path data-name="Контур 345" d="M61.332 38.822l-1.967-1.133a.454.454 0 00-.446 0l-1.967 1.133a.436.436 0 00-.219.382v2.271a.445.445 0 00.219.383l1.967 1.139a.454.454 0 00.446 0l1.967-1.139a.44.44 0 00.227-.383v-2.264a.431.431 0 00-.227-.382" fill="#329027"/><path data-name="Контур 346" d="M61.332 45.095l-1.967-1.14a.454.454 0 00-.446 0l-1.967 1.14a.444.444 0 00-.219.382v2.271a.463.463 0 00.219.39l1.967 1.132a.454.454 0 00.446 0l1.967-1.132a.448.448 0 00.227-.39v-2.267a.438.438 0 00-.227-.382" fill="#329027"/><path data-name="Контур 347" d="M61.332 51.368l-1.967-1.139a.454.454 0 00-.446 0l-1.967 1.139a.445.445 0 00-.219.383v2.271a.445.445 0 00.219.389l1.967 1.133a.454.454 0 00.446 0l1.967-1.154a.438.438 0 00.227-.389v-2.25a.44.44 0 00-.227-.383" fill="#329027"/><path data-name="Контур 348" d="M49.989 26.282l-1.968-1.132a.425.425 0 00-.445 0l-1.968 1.132a.448.448 0 00-.219.382v2.251a.448.448 0 00.219.382l1.968 1.132a.425.425 0 00.445 0l1.968-1.132a.445.445 0 00.254-.382v-2.251a.445.445 0 00-.219-.382" fill="#8f257a"/><path data-name="Контур 349" d="M21.619 32.552l-1.967-1.132a.436.436 0 00-.439 0l-1.967 1.132a.445.445 0 00-.227.389v2.272a.438.438 0 00.227.382l1.967 1.139a.436.436 0 00.439 0l1.967-1.139a.437.437 0 00.226-.382v-2.272a.444.444 0 00-.226-.389" fill="#d9002c"/><path data-name="Контур 350" d="M21.619 26.282l-1.967-1.132a.41.41 0 00-.439 0l-1.967 1.132a.438.438 0 00-.227.382v2.251a.438.438 0 00.227.382l1.967 1.132a.41.41 0 00.439 0l1.967-1.132a.437.437 0 00.226-.382v-2.251a.437.437 0 00-.226-.382" fill="#d9002c"/><path data-name="Контур 351" d="M21.619 38.822l-1.967-1.133a.441.441 0 00-.439 0l-1.967 1.133a.43.43 0 00-.227.382v2.271a.439.439 0 00.227.383l1.963 1.137a.441.441 0 00.439 0l1.967-1.139a.439.439 0 00.226-.383v-2.262a.432.432 0 00-.226-.382" fill="#e74e00"/><path data-name="Контур 352" d="M27.294 38.822l-1.967-1.133a.454.454 0 00-.446 0l-1.967 1.133a.438.438 0 00-.22.382v2.271a.446.446 0 00.22.383l1.967 1.139a.454.454 0 00.446 0l1.967-1.139a.446.446 0 00.22-.383v-2.264a.439.439 0 00-.22-.382" fill="#e74e00"/><path data-name="Контур 353" d="M13.983 12.638a.454.454 0 00-.446 0l-1.967 1.14a.432.432 0 00-.226.382v2.272a.437.437 0 00.226.382l1.967 1.139a.454.454 0 00.446 0l1.968-1.139a.447.447 0 00.219-.382v-2.307a.439.439 0 00-.219-.383z" fill="#008bd0"/><path data-name="Контур 354" d="M19.652 12.638a.441.441 0 00-.439 0l-1.975 1.14a.438.438 0 00-.219.382v2.272a.447.447 0 00.219.382l1.975 1.139a.441.441 0 00.439 0l1.967-1.139a.437.437 0 00.226-.382v-2.307a.433.433 0 00-.226-.383z" fill="#008bd0"/><path data-name="Контур 355" d="M21.619 20.012l-1.967-1.139a.441.441 0 00-.439 0l-1.967 1.139a.438.438 0 00-.227.382v2.272a.445.445 0 00.227.389l1.967 1.132a.436.436 0 00.439 0l1.967-1.132a.444.444 0 00.226-.389v-2.243a.436.436 0 00-.226-.382" fill="#008bd0"/><path data-name="Контур 356" d="M15.951 26.282l-1.975-1.132a.41.41 0 00-.439 0l-1.967 1.132a.437.437 0 00-.226.382v2.251a.437.437 0 00.226.382l1.967 1.132a.41.41 0 00.439 0l1.975-1.132a.447.447 0 00.219-.382v-2.251a.447.447 0 00-.219-.382" fill="#d9002c"/><path data-name="Контур 357" d="M10.275 38.822l-1.967-1.133a.454.454 0 00-.446 0l-1.967 1.133a.438.438 0 00-.22.382v2.271a.446.446 0 00.22.383l1.967 1.139a.454.454 0 00.446 0l1.967-1.139a.449.449 0 00.22-.383v-2.264a.439.439 0 00-.22-.382" fill="#abbf00"/><path data-name="Контур 358" d="M4.6 26.282L2.632 25.15a.425.425 0 00-.445 0L.219 26.282a.447.447 0 00-.219.382v2.251a.447.447 0 00.219.382l1.968 1.132a.425.425 0 00.445 0L4.6 29.297a.437.437 0 00.226-.382v-2.251a.437.437 0 00-.226-.382" fill="#abbf00"/><path data-name="Контур 359" d="M10.275 32.552L8.308 31.42a.449.449 0 00-.446 0l-1.967 1.132a.459.459 0 00-.22.389v2.272a.446.446 0 00.22.382l1.967 1.139a.454.454 0 00.446 0l1.967-1.139a.449.449 0 00.22-.382v-2.272a.459.459 0 00-.22-.389" fill="#abbf00"/><path data-name="Контур 360" d="M15.951 38.822l-1.975-1.133a.441.441 0 00-.439 0l-1.967 1.133a.431.431 0 00-.226.382v2.271a.439.439 0 00.226.383l1.967 1.139a.441.441 0 00.439 0l1.975-1.139a.447.447 0 00.219-.383v-2.264a.438.438 0 00-.219-.382" fill="#abbf00"/><path data-name="Контур 361" d="M15.951 32.552l-1.975-1.132a.436.436 0 00-.439 0l-1.967 1.132a.444.444 0 00-.226.389v2.272a.437.437 0 00.226.382l1.967 1.139a.436.436 0 00.439 0l1.975-1.139a.447.447 0 00.219-.382v-2.272a.46.46 0 00-.219-.389" fill="#abbf00"/><path data-name="Контур 362" d="M15.951 45.095l-1.975-1.14a.441.441 0 00-.439 0l-1.967 1.14a.437.437 0 00-.226.382v2.271a.447.447 0 00.226.39l1.967 1.132a.441.441 0 00.439 0l1.975-1.132a.463.463 0 00.219-.39v-2.267a.446.446 0 00-.219-.382" fill="#ffbf00"/><path data-name="Контур 363" d="M27.294 32.552l-1.967-1.132a.449.449 0 00-.446 0l-1.967 1.132a.459.459 0 00-.22.389v2.272a.446.446 0 00.22.382l1.967 1.139a.454.454 0 00.446 0l1.967-1.139a.446.446 0 00.22-.382v-2.272a.459.459 0 00-.22-.389" fill="#e74e00"/><path data-name="Контур 364" d="M36.671 6.333a.441.441 0 00-.439 0l-1.974 1.133a.459.459 0 00-.22.389v2.271a.445.445 0 00.22.382l1.974 1.14a.441.441 0 00.439 0l1.967-1.132a.438.438 0 00.226-.383V7.855a.444.444 0 00-.226-.389z" fill="#008bd0"/><path data-name="Контур 365" d="M38.638 32.552l-1.967-1.132a.437.437 0 00-.439 0l-1.974 1.132a.459.459 0 00-.22.389v2.272a.446.446 0 00.22.382l1.974 1.139a.437.437 0 00.439 0l1.967-1.139a.437.437 0 00.226-.382v-2.272a.444.444 0 00-.226-.389" fill="#8f257a"/><path data-name="Контур 366" d="M38.638 38.822l-1.967-1.133a.441.441 0 00-.439 0l-1.974 1.133a.436.436 0 00-.22.382v2.271a.446.446 0 00.22.383l1.974 1.139a.441.441 0 00.439 0l1.967-1.132a.438.438 0 00.226-.383v-2.271a.431.431 0 00-.226-.389" fill="#8f257a"/><path data-name="Контур 367" d="M32.97 20.012l-1.968-1.139a.452.452 0 00-.445 0l-1.968 1.139a.433.433 0 00-.219.382v2.272a.439.439 0 00.219.389l1.968 1.132a.447.447 0 00.445 0l1.968-1.132a.46.46 0 00.219-.389v-2.243a.446.446 0 00-.219-.382" fill="#008bd0"/><path data-name="Контур 368" d="M27.294 26.282l-1.967-1.132a.426.426 0 00-.446 0l-1.967 1.132a.446.446 0 00-.22.382v2.251a.446.446 0 00.22.382l1.967 1.132a.426.426 0 00.446 0l1.967-1.132a.446.446 0 00.22-.382v-2.251a.446.446 0 00-.22-.382" fill="#008bd0"/><path data-name="Контур 369" d="M36.671 12.638a.441.441 0 00-.439 0l-1.974 1.14a.437.437 0 00-.22.382v2.272a.446.446 0 00.22.382l1.974 1.139a.441.441 0 00.439 0l1.967-1.139a.437.437 0 00.226-.382v-2.307a.432.432 0 00-.226-.383z" fill="#008bd0"/><path data-name="Контур 370" d="M38.638 20.012l-1.967-1.139a.441.441 0 00-.439 0l-1.974 1.139a.446.446 0 00-.22.382v2.272a.459.459 0 00.22.389l1.974 1.132a.437.437 0 00.439 0l1.967-1.132a.444.444 0 00.226-.389v-2.243a.436.436 0 00-.226-.382" fill="#008bd0"/><path data-name="Контур 371" d="M38.638 26.282l-1.967-1.132a.41.41 0 00-.439 0l-1.974 1.132a.446.446 0 00-.22.382v2.251a.446.446 0 00.22.382l1.974 1.132a.41.41 0 00.439 0l1.967-1.132a.437.437 0 00.226-.382v-2.251a.437.437 0 00-.226-.382" fill="#008bd0"/><path data-name="Контур 372" d="M31.002 12.638a.452.452 0 00-.445 0l-1.968 1.1a.432.432 0 00-.226.383v2.274a.437.437 0 00.226.382l1.968 1.14a.452.452 0 00.445 0l1.968-1.14a.447.447 0 00.219-.382v-2.27a.44.44 0 00-.219-.383z" fill="#008bd0"/><path data-name="Контур 373" d="M32.97 45.095l-1.968-1.14a.452.452 0 00-.445 0l-1.968 1.14a.432.432 0 00-.219.382v2.271a.441.441 0 00.219.39l1.968 1.132a.452.452 0 00.445 0l1.968-1.132a.463.463 0 00.219-.39v-2.267a.446.446 0 00-.219-.382" fill="#8f257a"/><path data-name="Контур 374" d="M25.327 12.638a.454.454 0 00-.446 0l-1.967 1.14a.439.439 0 00-.22.382v2.272a.446.446 0 00.22.382l1.967 1.139a.454.454 0 00.446 0l1.967-1.139a.446.446 0 00.22-.382v-2.307a.44.44 0 00-.22-.383z" fill="#008bd0"/><path data-name="Контур 375" d="M27.294 20.012l-1.967-1.139a.454.454 0 00-.446 0l-1.967 1.139a.446.446 0 00-.22.382v2.272a.459.459 0 00.22.389l1.967 1.132a.449.449 0 00.446 0l1.967-1.132a.459.459 0 00.22-.389v-2.243a.445.445 0 00-.22-.382" fill="#008bd0"/><path data-name="Контур 376" d="M32.97 26.282l-1.968-1.132a.424.424 0 00-.445 0l-1.968 1.132a.433.433 0 00-.219.382v2.251a.434.434 0 00.219.382l1.968 1.132a.424.424 0 00.445 0l1.968-1.132a.447.447 0 00.219-.382v-2.251a.447.447 0 00-.219-.382" fill="#008bd0"/><path data-name="Контур 377" d="M32.97 38.822l-1.968-1.133a.452.452 0 00-.445 0l-1.968 1.133a.424.424 0 00-.219.382v2.271a.434.434 0 00.219.383l1.968 1.139a.452.452 0 00.445 0l1.968-1.139a.447.447 0 00.219-.383v-2.264a.438.438 0 00-.219-.382" fill="#8f257a"/><path data-name="Контур 378" d="M32.97 32.552l-1.968-1.132a.447.447 0 00-.445 0l-1.968 1.132a.439.439 0 00-.219.389v2.272a.433.433 0 00.219.382l1.968 1.139a.452.452 0 00.445 0l1.968-1.139a.447.447 0 00.219-.382v-2.272a.46.46 0 00-.219-.389" fill="#008bd0"/><path data-name="Контур 379" d="M78.352 51.368l-1.968-1.139a.439.439 0 00-.438 0l-1.975 1.139a.445.445 0 00-.219.383v2.271a.446.446 0 00.219.389l1.975 1.133a.439.439 0 00.438 0l1.968-1.133a.438.438 0 00.226-.389v-2.271a.441.441 0 00-.226-.383" fill="#329027"/><path data-name="Контур 380" d="M101.046 32.552l-1.974-1.132a.449.449 0 00-.446 0l-1.967 1.132a.459.459 0 00-.22.389v2.272a.446.446 0 00.22.382l1.967 1.139a.454.454 0 00.446 0l1.967-1.139a.437.437 0 00.226-.382v-2.272a.445.445 0 00-.226-.389" fill="#0056a3"/><path data-name="Контур 381" d="M101.046 38.822l-1.974-1.133a.454.454 0 00-.446 0l-1.96 1.133a.438.438 0 00-.22.382v2.271a.446.446 0 00.22.383l1.967 1.139a.454.454 0 00.446 0l1.967-1.139a.442.442 0 00.227-.383v-2.264a.435.435 0 00-.227-.382" fill="#0056a3"/><path data-name="Контур 382" d="M101.046 45.095l-1.974-1.14a.454.454 0 00-.446 0l-1.967 1.14a.445.445 0 00-.22.382v2.271a.462.462 0 00.22.39l1.967 1.132a.454.454 0 00.446 0l1.967-1.132a.447.447 0 00.226-.39v-2.267a.437.437 0 00-.226-.382" fill="#0056a3"/><path data-name="Контур 383" d="M101.046 51.368l-1.974-1.139a.454.454 0 00-.446 0l-1.967 1.139a.446.446 0 00-.22.383v2.271a.444.444 0 00.22.389l1.967 1.133a.454.454 0 00.446 0l1.967-1.133a.438.438 0 00.226-.389v-2.271a.439.439 0 00-.226-.383" fill="#0056a3"/><path data-name="Контур 384" d="M99.072 6.333a.454.454 0 00-.446 0l-1.967 1.133a.459.459 0 00-.22.389v2.271a.445.445 0 00.22.382l1.967 1.14a.454.454 0 00.446 0l1.974-1.132a.431.431 0 00.219-.383V7.855a.436.436 0 00-.219-.389z" fill="#0056a3"/><path data-name="Контур 385" d="M101.046 20.012l-1.974-1.139a.454.454 0 00-.446 0l-1.967 1.139a.446.446 0 00-.22.382v2.272a.459.459 0 00.22.389l1.967 1.132a.449.449 0 00.446 0l1.967-1.132a.445.445 0 00.226-.389v-2.243a.436.436 0 00-.226-.382" fill="#0056a3"/><path data-name="Контур 386" d="M101.046 26.282l-1.974-1.132a.426.426 0 00-.446 0l-1.967 1.132a.446.446 0 00-.22.382v2.251a.446.446 0 00.22.382l1.967 1.132a.426.426 0 00.446 0l1.967-1.132a.437.437 0 00.226-.382v-2.251a.437.437 0 00-.226-.382" fill="#0056a3"/><path data-name="Контур 387" d="M99.072 12.638a.454.454 0 00-.446 0l-1.967 1.14a.437.437 0 00-.22.382v2.272a.446.446 0 00.22.382l1.967 1.139a.454.454 0 00.446 0l1.967-1.139a.432.432 0 00.219-.382v-2.307a.425.425 0 00-.219-.383z" fill="#0056a3"/><path data-name="Контур 388" d="M95.371 45.095l-1.961-1.14a.439.439 0 00-.438 0l-1.963 1.14a.439.439 0 00-.226.382v2.271a.449.449 0 00.226.39l1.968 1.132a.439.439 0 00.438 0l1.968-1.132a.447.447 0 00.226-.39v-2.267a.437.437 0 00-.226-.382" fill="#0056a3"/><path data-name="Контур 389" d="M95.371 51.368l-1.961-1.139a.439.439 0 00-.438 0l-1.963 1.139a.44.44 0 00-.226.383v2.271a.438.438 0 00.226.389l1.968 1.133a.439.439 0 00.438 0l1.968-1.133a.438.438 0 00.226-.389v-2.271a.438.438 0 00-.226-.383" fill="#0056a3"/><path data-name="Контур 390" d="M93.409 12.638a.439.439 0 00-.438 0l-1.962 1.14a.432.432 0 00-.226.382v2.272a.439.439 0 00.226.382l1.968 1.139a.439.439 0 00.438 0l1.968-1.139a.437.437 0 00.226-.382v-2.307a.432.432 0 00-.226-.383z" fill="#0056a3"/><path data-name="Контур 391" d="M95.371 38.822l-1.961-1.133a.439.439 0 00-.438 0l-1.975 1.133a.43.43 0 00-.226.382v2.271a.441.441 0 00.226.383l1.968 1.139a.439.439 0 00.438 0l1.968-1.139a.441.441 0 00.226-.383v-2.264a.432.432 0 00-.226-.382" fill="#0056a3"/><path data-name="Контур 392" d="M95.371 20.012l-1.961-1.139a.439.439 0 00-.438 0l-1.963 1.139a.439.439 0 00-.226.382v2.272a.446.446 0 00.226.389l1.968 1.132a.434.434 0 00.438 0l1.968-1.132a.444.444 0 00.226-.389v-2.243a.436.436 0 00-.226-.382" fill="#0056a3"/><path data-name="Контур 393" d="M87.749 12.638a.454.454 0 00-.446 0l-1.967 1.14a.432.432 0 00-.226.382v2.272a.437.437 0 00.226.382l1.967 1.139a.454.454 0 00.446 0l1.967-1.139a.446.446 0 00.22-.382v-2.307a.439.439 0 00-.22-.383z" fill="#0056a3"/><path data-name="Контур 394" d="M95.371 26.282L93.41 25.15a.408.408 0 00-.438 0l-1.963 1.132a.439.439 0 00-.226.382v2.251a.439.439 0 00.226.382l1.968 1.132a.408.408 0 00.438 0l1.968-1.132a.437.437 0 00.226-.382v-2.251a.437.437 0 00-.226-.382" fill="#0056a3"/><path data-name="Контур 395" d="M95.371 32.552L93.41 31.42a.434.434 0 00-.438 0l-1.963 1.132a.446.446 0 00-.226.389v2.272a.439.439 0 00.226.382l1.968 1.139a.434.434 0 00.438 0l1.963-1.139a.437.437 0 00.226-.382v-2.272a.444.444 0 00-.226-.389" fill="#0056a3"/><path data-name="Контур 396" d="M112.397 20.012l-2-1.139a.441.441 0 00-.439 0l-1.967 1.139a.437.437 0 00-.226.382v2.272a.445.445 0 00.226.389l1.967 1.132a.436.436 0 00.439 0l1.975-1.132a.461.461 0 00.219-.389v-2.243a.446.446 0 00-.219-.382" fill="#0056a3"/><path data-name="Контур 397" d="M112.397 26.282l-2-1.132a.41.41 0 00-.439 0l-1.967 1.132a.437.437 0 00-.226.382v2.251a.437.437 0 00.226.382l1.967 1.132a.41.41 0 00.439 0l1.975-1.132a.448.448 0 00.219-.382v-2.251a.448.448 0 00-.219-.382" fill="#0056a3"/><path data-name="Контур 398" d="M112.397 45.095l-2-1.14a.441.441 0 00-.439 0l-1.967 1.14a.437.437 0 00-.226.382v2.271a.447.447 0 00.226.39l1.967 1.132a.441.441 0 00.439 0l1.975-1.132a.464.464 0 00.219-.39v-2.267a.446.446 0 00-.219-.382" fill="#0056a3"/><path data-name="Контур 399" d="M67.009 26.282l-1.967-1.132a.426.426 0 00-.446 0l-1.968 1.132a.447.447 0 00-.219.382v2.251a.447.447 0 00.219.382l1.968 1.132a.426.426 0 00.446 0l1.967-1.134a.445.445 0 00.219-.382v-2.249a.445.445 0 00-.219-.382" fill="#329027"/><path data-name="Контур 400" d="M118.065 26.282l-1.967-1.132a.426.426 0 00-.446 0l-1.967 1.132a.446.446 0 00-.22.382v2.251a.446.446 0 00.22.382l1.967 1.132a.426.426 0 00.446 0l1.967-1.132a.44.44 0 00.227-.382v-2.251a.44.44 0 00-.227-.382" fill="#0056a3"/><path data-name="Контур 401" d="M110.394 6.333a.441.441 0 00-.439 0l-1.967 1.133a.445.445 0 00-.226.389v2.271a.436.436 0 00.226.382l1.967 1.14a.441.441 0 00.439 0l2-1.132a.445.445 0 00.219-.383V7.855a.46.46 0 00-.219-.389z" fill="#0056a3"/><path data-name="Контур 402" d="M104.733.063a.426.426 0 00-.446 0l-1.967 1.133a.431.431 0 00-.22.382v2.278a.434.434 0 00.22.383l1.967 1.139a.454.454 0 00.446 0l1.967-1.139a.446.446 0 00.22-.383V1.578a.446.446 0 00-.22-.382z" fill="#0056a3"/><path data-name="Контур 403" d="M104.733 12.638a.454.454 0 00-.446 0l-1.967 1.14a.426.426 0 00-.22.382v2.272a.433.433 0 00.22.382l1.967 1.139a.454.454 0 00.446 0l1.967-1.139a.446.446 0 00.22-.382v-2.307a.441.441 0 00-.22-.383z" fill="#0056a3"/><path data-name="Контур 404" d="M106.721 45.095l-1.988-1.14a.454.454 0 00-.446 0l-1.967 1.14a.431.431 0 00-.22.382v2.271a.44.44 0 00.22.39l1.967 1.132a.454.454 0 00.446 0l1.967-1.132a.462.462 0 00.22-.39v-2.267a.445.445 0 00-.22-.382" fill="#0056a3"/><path data-name="Контур 405" d="M106.721 26.282l-1.988-1.132a.426.426 0 00-.446 0l-1.967 1.132a.432.432 0 00-.22.382v2.251a.433.433 0 00.22.382l1.967 1.132a.426.426 0 00.446 0l1.967-1.132a.446.446 0 00.22-.382v-2.251a.446.446 0 00-.22-.382" fill="#0056a3"/><path data-name="Контур 406" d="M106.721 51.368l-1.988-1.139a.454.454 0 00-.446 0l-1.967 1.139a.434.434 0 00-.22.383v2.271a.432.432 0 00.22.389l1.967 1.133a.454.454 0 00.446 0l1.967-1.133a.446.446 0 00.22-.389v-2.271a.446.446 0 00-.22-.383" fill="#0056a3"/><path data-name="Контур 407" d="M106.721 57.638l-1.988-1.125a.454.454 0 00-.446 0l-1.967 1.132a.434.434 0 00-.22.39v2.271a.431.431 0 00.22.382l1.967 1.14a.454.454 0 00.446 0l1.967-1.14a.446.446 0 00.22-.382v-2.279a.447.447 0 00-.22-.389" fill="#0056a3"/><path data-name="Контур 408" d="M106.721 20.012l-1.988-1.139a.454.454 0 00-.446 0l-1.967 1.139a.432.432 0 00-.22.382v2.272a.439.439 0 00.22.389l1.967 1.132a.449.449 0 00.446 0l1.967-1.132a.459.459 0 00.22-.389v-2.243a.445.445 0 00-.22-.382" fill="#0056a3"/><path data-name="Контур 409" d="M104.733 6.333a.454.454 0 00-.446 0l-1.967 1.133a.439.439 0 00-.22.389v2.271a.431.431 0 00.22.382l1.967 1.14a.454.454 0 00.446 0l1.988-1.132a.446.446 0 00.22-.383V7.855a.459.459 0 00-.22-.389z" fill="#0056a3"/><path data-name="Контур 410" d="M118.065 32.552l-1.967-1.132a.449.449 0 00-.446 0l-1.967 1.132a.459.459 0 00-.22.389v2.272a.446.446 0 00.22.382l1.967 1.139a.454.454 0 00.446 0l1.967-1.139a.44.44 0 00.227-.382v-2.272a.447.447 0 00-.227-.389" fill="#0056a3"/><path data-name="Контур 411" d="M89.702 20.012l-1.953-1.139a.454.454 0 00-.446 0l-1.967 1.139a.437.437 0 00-.226.382v2.272a.444.444 0 00.226.389l1.967 1.132a.449.449 0 00.446 0l1.967-1.132a.459.459 0 00.22-.389v-2.243a.445.445 0 00-.22-.382" fill="#0056a3"/><path data-name="Контур 412" d="M72.683 26.282l-1.967-1.132a.426.426 0 00-.446 0l-1.967 1.132a.441.441 0 00-.227.382v2.251a.441.441 0 00.227.382l1.967 1.132a.426.426 0 00.446 0l1.967-1.132a.445.445 0 00.2-.382v-2.251a.445.445 0 00-.219-.382" fill="#0056a3"/><path data-name="Контур 413" d="M78.352 57.638l-1.968-1.125a.439.439 0 00-.438 0l-1.975 1.132a.447.447 0 00-.219.39v2.271a.445.445 0 00.219.382l1.975 1.14a.439.439 0 00.438 0l1.968-1.14a.439.439 0 00.226-.382v-2.279a.439.439 0 00-.226-.389" fill="#329027"/><path data-name="Контур 414" d="M72.683 20.012l-1.967-1.139a.454.454 0 00-.446 0l-1.967 1.139a.441.441 0 00-.227.382v2.272a.447.447 0 00.227.389l1.967 1.132a.449.449 0 00.446 0l1.967-1.132a.459.459 0 00.22-.389v-2.243a.445.445 0 00-.22-.382" fill="#0056a3"/><path data-name="Контур 415" d="M78.352 45.095l-1.968-1.14a.439.439 0 00-.438 0l-1.975 1.14a.444.444 0 00-.219.382v2.271a.463.463 0 00.219.39l1.975 1.132a.439.439 0 00.438 0l1.968-1.132a.449.449 0 00.226-.39v-2.267a.439.439 0 00-.226-.382" fill="#0056a3"/><path data-name="Контур 416" d="M78.352 32.552l-1.968-1.132a.434.434 0 00-.438 0l-1.975 1.132a.46.46 0 00-.219.389v2.272a.445.445 0 00.219.382l1.975 1.139a.434.434 0 00.438 0l1.968-1.139a.439.439 0 00.226-.382v-2.272a.447.447 0 00-.226-.389" fill="#0056a3"/><path data-name="Контур 417" d="M78.352 38.822l-1.968-1.14a.439.439 0 00-.438 0l-1.975 1.14a.437.437 0 00-.219.382v2.271a.445.445 0 00.219.383l1.975 1.139a.439.439 0 00.438 0l1.968-1.139a.441.441 0 00.226-.383v-2.264a.432.432 0 00-.226-.382" fill="#0056a3"/><path data-name="Контур 418" d="M67.009 20.012l-1.967-1.139a.454.454 0 00-.446 0l-1.968 1.139a.447.447 0 00-.219.382v2.272a.46.46 0 00.219.389l1.968 1.132a.449.449 0 00.446 0l1.967-1.132a.46.46 0 00.219-.389v-2.243a.444.444 0 00-.219-.382" fill="#329027"/><path data-name="Контур 419" d="M65.041 6.333a.454.454 0 00-.446 0l-1.968 1.133a.46.46 0 00-.219.389v2.271a.446.446 0 00.219.382l1.968 1.14a.454.454 0 00.446 0l1.968-1.132a.445.445 0 00.219-.383V7.855a.46.46 0 00-.219-.389z" fill="#0056a3"/><path data-name="Контур 420" d="M72.683 32.552l-1.967-1.132a.449.449 0 00-.446 0l-1.967 1.132a.447.447 0 00-.227.389v2.272a.441.441 0 00.227.382l1.967 1.139a.454.454 0 00.446 0l1.967-1.139a.446.446 0 00.22-.382v-2.272a.459.459 0 00-.22-.389" fill="#0056a3"/><path data-name="Контур 421" d="M78.352 26.282l-1.968-1.132a.408.408 0 00-.438 0l-1.975 1.132a.445.445 0 00-.219.382v2.251a.445.445 0 00.219.382l1.975 1.132a.408.408 0 00.438 0l1.968-1.132a.44.44 0 00.2-.382v-2.251a.44.44 0 00-.227-.382" fill="#0056a3"/><path data-name="Контур 422" d="M72.683 51.368l-1.967-1.139a.454.454 0 00-.446 0l-1.967 1.139a.442.442 0 00-.227.383v2.271a.437.437 0 00.227.389l1.967 1.133a.454.454 0 00.446 0l1.967-1.133a.447.447 0 00.22-.389v-2.271a.446.446 0 00-.22-.383" fill="#329027"/><path data-name="Контур 423" d="M72.683 45.095l-1.967-1.14a.454.454 0 00-.446 0l-1.967 1.14a.441.441 0 00-.227.382v2.271a.45.45 0 00.227.39l1.967 1.132a.454.454 0 00.446 0l1.967-1.132a.462.462 0 00.22-.39v-2.267a.445.445 0 00-.22-.382" fill="#329027"/><path data-name="Контур 424" d="M72.683 38.822l-1.967-1.133a.454.454 0 00-.446 0l-1.967 1.133a.434.434 0 00-.227.382v2.271a.442.442 0 00.227.383l1.967 1.139a.454.454 0 00.446 0l1.967-1.139a.446.446 0 00.22-.383v-2.264a.439.439 0 00-.22-.382" fill="#0056a3"/><path data-name="Контур 425" d="M70.716 12.638a.454.454 0 00-.446 0l-1.967 1.14a.435.435 0 00-.227.382v2.272a.441.441 0 00.227.382l1.967 1.139a.454.454 0 00.446 0l1.967-1.139a.446.446 0 00.22-.382v-2.307a.441.441 0 00-.22-.383z" fill="#0056a3"/><path data-name="Контур 426" d="M84.027 20.012l-1.939-1.139a.454.454 0 00-.446 0l-1.967 1.139a.448.448 0 00-.22.382v2.272a.459.459 0 00.22.389l1.967 1.132a.449.449 0 00.446 0l1.967-1.132a.46.46 0 00.22-.389v-2.243a.445.445 0 00-.22-.382" fill="#0056a3"/><path data-name="Контур 427" d="M89.702 51.368l-1.953-1.139a.454.454 0 00-.446 0l-1.967 1.139a.439.439 0 00-.226.383v2.271a.438.438 0 00.226.389l1.967 1.133a.454.454 0 00.446 0l1.967-1.133a.444.444 0 00.22-.389v-2.271a.446.446 0 00-.22-.383" fill="#0056a3"/><path data-name="Контур 428" d="M82.088 12.638a.454.454 0 00-.446 0l-1.967 1.14a.439.439 0 00-.22.382v2.272a.448.448 0 00.22.382l1.967 1.139a.454.454 0 00.446 0l1.967-1.139a.447.447 0 00.22-.382v-2.307a.441.441 0 00-.22-.383z" fill="#0056a3"/><path data-name="Контур 429" d="M89.702 45.095l-1.953-1.14a.454.454 0 00-.446 0l-1.967 1.14a.437.437 0 00-.226.382v2.271a.447.447 0 00.226.39l1.967 1.132a.454.454 0 00.446 0l1.967-1.132a.462.462 0 00.22-.39v-2.267a.445.445 0 00-.22-.382" fill="#0056a3"/><path data-name="Контур 430" d="M78.352 20.012l-1.968-1.139a.439.439 0 00-.438 0l-1.975 1.139a.445.445 0 00-.219.382v2.272a.46.46 0 00.219.389l1.975 1.132a.434.434 0 00.438 0l1.968-1.132a.447.447 0 00.226-.389v-2.243a.438.438 0 00-.226-.382" fill="#0056a3"/><path data-name="Контур 431" d="M89.702 26.282l-1.953-1.132a.426.426 0 00-.446 0l-1.967 1.132a.437.437 0 00-.226.382v2.251a.437.437 0 00.226.382l1.967 1.132a.426.426 0 00.446 0l1.967-1.132a.446.446 0 00.22-.382v-2.251a.446.446 0 00-.22-.382" fill="#0056a3"/><path data-name="Контур 432" d="M89.702 32.552l-1.953-1.132a.449.449 0 00-.446 0l-1.967 1.132a.444.444 0 00-.226.389v2.272a.437.437 0 00.226.382l1.967 1.139a.454.454 0 00.446 0l1.967-1.139a.446.446 0 00.22-.382v-2.272a.459.459 0 00-.22-.389" fill="#0056a3"/><path data-name="Контур 433" d="M89.702 38.822l-1.953-1.133a.454.454 0 00-.446 0l-1.981 1.133a.431.431 0 00-.226.382v2.271a.439.439 0 00.226.383l1.967 1.139a.454.454 0 00.446 0l1.967-1.139a.446.446 0 00.22-.383v-2.264a.439.439 0 00-.22-.382" fill="#0056a3"/><path data-name="Контур 434" d="M84.027 26.282l-1.939-1.132a.426.426 0 00-.446 0l-1.967 1.132a.448.448 0 00-.22.382v2.251a.448.448 0 00.22.382l1.967 1.132a.426.426 0 00.446 0l1.967-1.132a.447.447 0 00.22-.382v-2.251a.447.447 0 00-.22-.382" fill="#0056a3"/><path data-name="Контур 435" d="M84.027 51.368l-1.939-1.139a.454.454 0 00-.446 0l-1.967 1.139a.448.448 0 00-.22.383v2.271a.447.447 0 00.22.389l1.967 1.133a.454.454 0 00.446 0l1.967-1.133a.446.446 0 00.22-.389v-2.271a.447.447 0 00-.22-.383" fill="#329027"/><path data-name="Контур 436" d="M84.027 57.638l-1.939-1.125a.454.454 0 00-.446 0l-1.967 1.132a.448.448 0 00-.22.39v2.271a.448.448 0 00.22.382l1.967 1.14a.454.454 0 00.446 0l1.967-1.14a.447.447 0 00.22-.382v-2.279a.447.447 0 00-.22-.389" fill="#329027"/><path data-name="Контур 437" d="M84.027 45.095l-1.939-1.14a.454.454 0 00-.446 0l-1.967 1.14a.447.447 0 00-.22.382v2.271a.462.462 0 00.22.39l1.967 1.132a.454.454 0 00.446 0l1.967-1.132a.462.462 0 00.22-.39v-2.267a.445.445 0 00-.22-.382" fill="#0056a3"/><path data-name="Контур 438" d="M84.027 38.822l-1.939-1.133a.454.454 0 00-.446 0l-2 1.133a.436.436 0 00-.22.382v2.271a.446.446 0 00.22.383l1.967 1.137a.454.454 0 00.446 0l1.967-1.139a.445.445 0 00.219-.383v-2.262a.438.438 0 00-.219-.382" fill="#0056a3"/><path data-name="Контур 439" d="M84.027 32.552l-1.939-1.132a.449.449 0 00-.446 0l-1.967 1.132a.459.459 0 00-.22.389v2.272a.448.448 0 00.22.382l1.967 1.139a.454.454 0 00.446 0l1.967-1.139a.447.447 0 00.22-.382v-2.272a.46.46 0 00-.22-.389" fill="#0056a3"/></g></svg>