<svg xmlns="http://www.w3.org/2000/svg" width="25" height="37.188"><g data-name="Сгруппировать 194" fill="#e3d400"><path data-name="Контур 518" d="M24.962 4.831a.723.723 0 00-.2-.359c-.123-.12-.246-.236-.375-.354a15.914 15.914 0 00-5.385-3.06V1.05l-.363-.115a18.033 18.033 0 00-1.317-.369 20.369 20.369 0 00-4.815-.563 20.144 20.144 0 00-6.131.932l-.364.118v.008A15.55 15.55 0 00.275 4.446l-.039.039a.606.606 0 00-.188.348c-.569 3.291 5.28 13.964 10.273 17.522a.615.615 0 00.306.11l1.835.147h.094l1.835-.147a.62.62 0 00.307-.11C19.684 18.792 25.53 8.118 24.962 4.831zM12.5 20.646c-.369-.859-.921-2.267-1.612-4.21-1.126-3.17-2.137-6.406-2.8-8.982a9.41 9.41 0 018.83 0c-.668 2.578-1.675 5.814-2.8 8.982-.696 1.937-1.249 3.348-1.618 4.207zM17.027 1.76c.277.065.557.141.84.225v.269c0 .066 0 .134-.008.207v.037c0 .06-.008.123-.016.188a.376.376 0 01-.005.061c0 .07-.01.144-.019.222v.032c-.01.091-.021.188-.037.29v.029a28.69 28.69 0 01-.037.283c0 .021-.008.042-.011.063-.015.1-.031.209-.049.316 0 .011 0 .019-.006.029-.041.252-.091.521-.149.814a.337.337 0 00-.01.053c-.029.144-.06.293-.094.45-.061.277-.126.575-.2.89a10.733 10.733 0 00-9.446 0c-.02-.092-.044-.181-.063-.267a3.63 3.63 0 00-.031-.131c-.034-.155-.068-.3-.1-.451a2.351 2.351 0 01-.029-.141c-.024-.1-.045-.2-.063-.3-.01-.05-.021-.1-.029-.147-.021-.1-.039-.2-.057-.3a.664.664 0 01-.016-.1 7.903 7.903 0 01-.066-.359l-.015-.089c-.013-.086-.026-.17-.04-.251 0-.037-.01-.071-.015-.1l-.032-.235c0-.021-.007-.045-.007-.068-.014-.1-.024-.186-.035-.275v-.05c-.008-.071-.013-.141-.018-.207a.458.458 0 01-.006-.063c-.008-.065-.01-.128-.015-.183v-.042c-.006-.073-.006-.139-.008-.2v-.275a19.46 19.46 0 019.894-.225zm-6.139 19.5C6.217 17.82 1.041 8.086 1.227 5.23A14.14 14.14 0 015.908 2.4v.021a6.422 6.422 0 00.055.707c.013.146.031.3.055.463.008.063.013.123.024.188.031.223.07.453.112.7v.005c.042.243.092.5.149.769.013.079.032.157.047.233.042.21.092.424.142.645.018.083.039.167.057.251.071.3.144.607.225.934l.212.83h.006c.673 2.544 1.652 5.662 2.735 8.71.377 1.06 1.131 3.133 1.718 4.45zm3.225 0l-.563.044c.589-1.317 1.343-3.39 1.72-4.45 1.081-3.048 2.058-6.163 2.736-8.71h.005l.212-.83c.081-.327.155-.636.225-.937l.058-.243c.05-.226.1-.443.141-.652.016-.076.034-.152.047-.228.11-.539.2-1.034.265-1.479.01-.066.015-.123.023-.183.024-.163.042-.32.058-.472 0-.055.01-.112.018-.17.016-.188.029-.369.034-.537v-.015a14.248 14.248 0 014.472 2.639l.209.191c.186 2.851-4.99 12.58-9.66 16.025z"/><path data-name="Контур 519" d="M12.5 24.792c-1.877 0-3.291-.89-3.291-2.071s1.414-2.073 3.291-2.073 3.295.883 3.295 2.073-1.418 2.071-3.295 2.071zm0-2.919c-1.28 0-2.065.547-2.065.848s.785.843 2.065.843 2.063-.547 2.063-.843-.783-.848-2.063-.848z"/><path data-name="Контур 520" d="M12.5 37.188a7.133 7.133 0 117.131-7.131 7.139 7.139 0 01-7.131 7.131zm0-13.037a5.9 5.9 0 105.9 5.906 5.91 5.91 0 00-5.9-5.906z"/><path data-name="Контур 521" d="M12.5 35.34a5.285 5.285 0 115.283-5.283A5.29 5.29 0 0112.5 35.34zm0-9.341a4.056 4.056 0 104.058 4.058 4.061 4.061 0 00-4.058-4.058z"/><path data-name="Контур 522" d="M12.249 32.238v-3.817h-.454a.5.5 0 01-.375-.144.519.519 0 01-.141-.377.513.513 0 01.152-.375.5.5 0 01.364-.152h1.081a.478.478 0 01.369.152.55.55 0 01.139.388v4.325a.606.606 0 01-.152.429.616.616 0 01-.835 0 .6.6 0 01-.148-.429z"/></g></svg>