<svg xmlns="http://www.w3.org/2000/svg" width="70.026" height="70.35"><g data-name="Сгруппировать 60" fill="#fff"><path data-name="Контур 18" d="M17.415 28.766a8.467 8.467 0 10-9.7 8.378v9.225h2.464v-9.225a8.47 8.47 0 007.236-8.378z"/><path data-name="Контур 19" d="M70.026 28.766a8.467 8.467 0 10-9.7 8.378v9.225h2.464v-9.225a8.47 8.47 0 007.236-8.378z"/><path data-name="Контур 20" d="M39.92 17.025l-5.3-3.389-.076-.05-.076.05-5.3 3.389-2.027 1.3v16.11h6.227v11.938h2.465V34.436h6.115v-16.11zm0 15.415H29.176V19.402l5.372-3.437 5.372 3.438z"/><path data-name="Контур 21" d="M30.931 21.362v6.553h7.223v-6.553zm3.1 5.49h-1.847v-4.427h1.847zm2.864 0h-1.847v-4.427h1.847z"/><g data-name="Сгруппировать 59"><path data-name="Контур 22" d="M20.13 55.655h-.317c-3.285-.088-5.406-1.584-7.278-2.9-1.834-1.292-3.417-2.409-5.974-2.409a10.513 10.513 0 00-5.228 1.78L0 50.252a12.722 12.722 0 016.561-2.206c3.287 0 5.418 1.5 7.3 2.829 1.762 1.242 3.425 2.415 6.014 2.485 3.014.08 5.16-1.246 7.435-2.65 2.052-1.265 4.174-2.574 6.908-2.745 3.08-.192 5.632 1.35 8.1 2.84 2.175 1.313 4.228 2.555 6.5 2.555 2.621 0 4.478-1.239 6.444-2.552 2.035-1.357 4.138-2.762 7.088-2.762a10.457 10.457 0 017.122 2.578l-1.626 1.627a8.161 8.161 0 00-5.5-1.905c-2.252 0-3.9 1.1-5.811 2.375-2.064 1.377-4.4 2.938-7.721 2.938-2.911 0-5.34-1.467-7.688-2.885-2.265-1.368-4.407-2.659-6.768-2.514-2.159.136-3.949 1.239-5.843 2.407-2.278 1.399-4.853 2.988-8.385 2.988z"/><path data-name="Контур 23" d="M20.13 63.002h-.317c-3.285-.088-5.406-1.584-7.278-2.9-1.834-1.293-3.417-2.409-5.974-2.409a10.516 10.516 0 00-5.228 1.779L0 57.598a12.722 12.722 0 016.561-2.206c3.287 0 5.418 1.5 7.3 2.829 1.762 1.242 3.425 2.415 6.014 2.484 3.014.077 5.16-1.245 7.435-2.649 2.052-1.265 4.174-2.573 6.908-2.744 3.08-.194 5.632 1.349 8.1 2.84 2.175 1.313 4.228 2.554 6.5 2.554 2.621 0 4.478-1.239 6.444-2.551 2.035-1.358 4.138-2.763 7.088-2.763a10.457 10.457 0 017.122 2.578l-1.626 1.627a8.168 8.168 0 00-5.5-1.9c-2.252 0-3.9 1.1-5.811 2.375-2.064 1.377-4.4 2.938-7.721 2.938-2.911 0-5.34-1.467-7.688-2.885-2.265-1.369-4.4-2.66-6.768-2.513-2.159.135-3.949 1.237-5.843 2.406-2.278 1.395-4.853 2.984-8.385 2.984z"/><path data-name="Контур 24" d="M20.13 70.349h-.317c-3.285-.089-5.406-1.584-7.278-2.9-1.834-1.293-3.417-2.409-5.974-2.409a10.5 10.5 0 00-5.228 1.78L0 64.946a12.722 12.722 0 016.561-2.206c3.287 0 5.418 1.5 7.3 2.829 1.762 1.242 3.425 2.415 6.014 2.483 3.014.079 5.16-1.245 7.435-2.648 2.052-1.266 4.174-2.574 6.908-2.745 3.08-.194 5.632 1.349 8.1 2.84 2.175 1.313 4.228 2.554 6.5 2.554 2.621 0 4.478-1.238 6.444-2.551 2.035-1.357 4.138-2.762 7.088-2.762a10.452 10.452 0 017.122 2.578l-1.626 1.627a8.161 8.161 0 00-5.5-1.905c-2.252 0-3.9 1.1-5.811 2.375-2.064 1.377-4.4 2.938-7.721 2.938-2.911 0-5.34-1.468-7.688-2.887-2.265-1.368-4.4-2.658-6.768-2.512-2.159.135-3.949 1.238-5.843 2.407-2.278 1.399-4.853 2.988-8.385 2.988z"/></g><text data-name="Лес &amp; Море" transform="translate(.309 12)" font-size="11.028" font-family="SegoeUI, Segoe UI"><tspan x="0" y="0">Лес &amp; Море</tspan></text></g></svg>