<svg xmlns="http://www.w3.org/2000/svg" width="34.852" height="46.534"><path data-name="Контур 8" d="M17.427 46.534a.913.913 0 01-.664-.287C16.078 45.525 0 28.422 0 17.425a17.426 17.426 0 0134.852 0c0 11-16.075 28.1-16.759 28.822a.919.919 0 01-.666.287zm0-44.7A15.612 15.612 0 001.832 17.428c0 9.068 12.537 23.464 15.595 26.839 3.057-3.376 15.593-17.776 15.593-26.839A15.611 15.611 0 0017.427 1.831zm.027 24.59a9 9 0 119-9 9.007 9.007 0 01-9 8.997zm0-16.16a7.164 7.164 0 107.164 7.164 7.172 7.172 0 00-7.164-7.167z" fill="#fff"/></svg>