<svg xmlns="http://www.w3.org/2000/svg" width="44.79" height="59.803"><g data-name="Сгруппировать 211"><path data-name="Контур 530" d="M22.397.291A22.067 22.067 0 00.358 22.331c0 12.189 15.738 30.51 20.561 35.836l1.482 1.636 1.483-1.637C28.706 52.841 44.44 34.52 44.44 22.331A22.064 22.064 0 0022.397.291z" fill="#fff"/><path data-name="Контур 531" d="M22.397 59.803a1.178 1.178 0 01-.854-.367C20.663 58.507 0 36.527 0 22.394a22.4 22.4 0 0144.79 0c0 14.133-20.659 36.113-21.538 37.042a1.181 1.181 0 01-.855.367zm0-57.449a20.063 20.063 0 00-20.039 20.04c0 11.654 16.112 30.155 20.042 34.493 3.929-4.34 20.039-22.845 20.039-34.493a20.062 20.062 0 00-20.042-20.04z" fill="#879026"/><g data-name="Сгруппировать 210" fill="#879026"><path data-name="Контур 532" d="M15.539 19.816a1.829 1.829 0 10-1.828-1.829 1.83 1.83 0 001.828 1.829zm0-2.743a.914.914 0 11-.914.914.915.915 0 01.914-.913z"/><path data-name="Контур 533" d="M36.106 28.957a.457.457 0 00-.457-.457 9.014 9.014 0 01-6.059-2.334l-6.888-6.232a.458.458 0 00-.307-.118h-2.742v-4.571h1.371a.457.457 0 00.457-.457v-3.657a.456.456 0 00-.457-.457h-1.828a.456.456 0 00-.457.457v.319l-2.743-4.114v-1.69a.457.457 0 00-.914 0v1.69l-2.743 4.114v-.319a.456.456 0 00-.457-.457h-1.824a.456.456 0 00-.457.457v3.657a.457.457 0 00.457.457h1.371v7.313h-1.371a.457.457 0 00-.457.457v1.829a.457.457 0 00.914 0v-1.37h2.742v6.4h-2.742v-3.2a.457.457 0 00-.914 0v3.2h-.457a.456.456 0 00-.457.457v1.828a.456.456 0 00.457.457h12.8a.456.456 0 00.457-.457v-1.828a.456.456 0 00-.457-.457h-.457v-5.881l7.581 6.318a9.959 9.959 0 006.368 2.3h.221a.457.457 0 00.457-.457zm-15.539.915h-2.724c.015-1.661.034-4.173.033-6.4h2.691zm-6.4-8.228h2.785c0 .372 0 .764.006 1.174a.418.418 0 000 .4v1.173h-2.792zm2.775 6.4h-2.775v-2.742h2.79c.001.942-.008 1.882-.014 2.741zm-2.775.915h2.768c0 .481-.008.919-.011 1.3a.461.461 0 00-.015.073.378.378 0 00.014.066l-.014 1.3v.005h-2.743zm1.371-20.66l2.8 4.2h-1.432v-1.371a.456.456 0 00-.457-.457h-1.827a.456.456 0 00-.457.457v1.371h-1.432zm-5.028 3.29h.914v1.371a.305.305 0 00.009.043.39.39 0 00.018.091.436.436 0 00.033.08.357.357 0 00.047.069.407.407 0 00.066.067c.012.009.018.022.031.031a.251.251 0 00.038.015.4.4 0 00.084.035.463.463 0 00.09.018c.014 0 .026.008.041.008h2.743a.457.457 0 00.457-.457v-1.371h.913v1.371a.456.456 0 00.457.457h2.743a.447.447 0 00.226-.068c.008-.005.019 0 .027-.008s.019-.022.031-.031a.424.424 0 00.066-.067.38.38 0 00.047-.069.475.475 0 00.033-.08.484.484 0 00.018-.091.3.3 0 00.009-.043v-1.371h.914v2.743H10.509zm1.828 10.97v-7.313h6.4v7.313h-.866c0-1.352-.018-2.525-.049-3.219a.463.463 0 00-.476-.437.458.458 0 00-.438.476c.015.341.026.8.034 1.352h-2.776V19.36a.458.458 0 10-.915 0v3.2zm-2.742 8.228h3.656v.914H9.596zm11.884.914h-3.657l.01-.914h3.647zm13.713 0a9.05 9.05 0 01-5.547-2.09l-8.33-6.943a.4.4 0 00-.074-.042.357.357 0 00-.052-.03.453.453 0 00-.167-.034h-1.371v-1.828h2.566l6.757 6.114a9.927 9.927 0 006.218 2.56z"/></g></g></svg>