<?xml version="1.0" encoding="utf-8"?>
<!-- Generator: Adobe Illustrator 24.0.1, SVG Export Plug-In . SVG Version: 6.00 Build 0)  -->
<svg version="1.1" id="Layer_1" xmlns="http://www.w3.org/2000/svg" xmlns:xlink="http://www.w3.org/1999/xlink" x="0px" y="0px"
	 viewBox="0 0 60 90" style="enable-background:new 0 0 60 90;" xml:space="preserve">
<style type="text/css">
	.st0{fill:#FFFFFF;}
	.st1{fill:url(#SVGID_1_);}
	.st2{fill:url(#SVGID_2_);}
	.st3{fill:url(#SVGID_3_);}
	.st4{fill:url(#SVGID_4_);}
	.st5{fill:url(#SVGID_5_);}
	.st6{fill:url(#SVGID_6_);}
	.st7{fill:url(#SVGID_7_);}
	.st8{fill:url(#SVGID_8_);}
	.st9{fill:#65B32E;}
</style>
<g>
	<path class="st0" d="M30.1,9.83c-14.76,0-26.76,12.01-26.76,26.76c0,16.89,24.69,43.15,25.74,44.26c0.27,0.28,0.63,0.44,1.02,0.44
		c0.39,0,0.76-0.16,1.02-0.44c1.05-1.11,25.74-27.37,25.74-44.26C56.86,21.83,44.86,9.83,30.1,9.83z"/>
	<linearGradient id="SVGID_1_" gradientUnits="userSpaceOnUse" x1="1.9373" y1="45.5611" x2="58.2629" y2="45.5611">
		<stop  offset="0.0196" style="stop-color:#0097D7"/>
		<stop  offset="0.1955" style="stop-color:#36A9E1"/>
		<stop  offset="0.2183" style="stop-color:#42ABD8"/>
		<stop  offset="0.2645" style="stop-color:#59B0BC"/>
		<stop  offset="0.3301" style="stop-color:#77B786"/>
		<stop  offset="0.4106" style="stop-color:#95C11F"/>
		<stop  offset="0.465" style="stop-color:#99C21D"/>
		<stop  offset="0.5108" style="stop-color:#A3C616"/>
		<stop  offset="0.5535" style="stop-color:#B5CC03"/>
		<stop  offset="0.5943" style="stop-color:#CCD500"/>
		<stop  offset="0.6337" style="stop-color:#E7E000"/>
		<stop  offset="0.6716" style="stop-color:#FFED00"/>
		<stop  offset="0.6732" style="stop-color:#FFED00"/>
		<stop  offset="0.7075" style="stop-color:#F8E700"/>
		<stop  offset="0.777" style="stop-color:#D0D700"/>
		<stop  offset="0.8745" style="stop-color:#81BB27"/>
		<stop  offset="0.8994" style="stop-color:#65B32E"/>
	</linearGradient>
	<path class="st1" d="M30.1,82.69c-0.77,0-1.51-0.32-2.04-0.88C27,80.69,1.94,54.04,1.94,36.59c0-15.53,12.63-28.16,28.17-28.16
		c15.53,0,28.16,12.63,28.16,28.16c0,17.44-25.05,44.1-26.12,45.23C31.61,82.37,30.87,82.69,30.1,82.69z M30.1,11.23
		c-13.98,0-25.36,11.38-25.36,25.36c0,16.35,24.32,42.21,25.36,43.3c1.04-1.09,25.36-26.96,25.36-43.3
		C55.46,22.61,44.08,11.23,30.1,11.23z"/>
</g>
<g>
	<g>
		<linearGradient id="SVGID_2_" gradientUnits="userSpaceOnUse" x1="14.5648" y1="34.6922" x2="42.1349" y2="34.6922">
			<stop  offset="0.0196" style="stop-color:#0097D7"/>
			<stop  offset="0.1955" style="stop-color:#36A9E1"/>
			<stop  offset="0.2183" style="stop-color:#42ABD8"/>
			<stop  offset="0.2645" style="stop-color:#59B0BC"/>
			<stop  offset="0.3301" style="stop-color:#77B786"/>
			<stop  offset="0.4106" style="stop-color:#95C11F"/>
			<stop  offset="0.465" style="stop-color:#99C21D"/>
			<stop  offset="0.5108" style="stop-color:#A3C616"/>
			<stop  offset="0.5535" style="stop-color:#B5CC03"/>
			<stop  offset="0.5943" style="stop-color:#CCD500"/>
			<stop  offset="0.6337" style="stop-color:#E7E000"/>
			<stop  offset="0.6716" style="stop-color:#FFED00"/>
			<stop  offset="0.6732" style="stop-color:#FFED00"/>
			<stop  offset="0.7075" style="stop-color:#F8E700"/>
			<stop  offset="0.777" style="stop-color:#D0D700"/>
			<stop  offset="0.8745" style="stop-color:#81BB27"/>
			<stop  offset="0.8994" style="stop-color:#65B32E"/>
		</linearGradient>
		<path class="st2" d="M22.47,32.74c0-2-1.62-3.62-3.62-3.62s-3.62,1.62-3.62,3.62c0,1.82,1.34,3.33,3.1,3.58v3.95h1.05v-3.95
			C21.13,36.07,22.47,34.56,22.47,32.74z"/>
		<linearGradient id="SVGID_3_" gradientUnits="userSpaceOnUse" x1="14.5648" y1="34.6922" x2="42.1349" y2="34.6922">
			<stop  offset="0.0196" style="stop-color:#0097D7"/>
			<stop  offset="0.1955" style="stop-color:#36A9E1"/>
			<stop  offset="0.2183" style="stop-color:#42ABD8"/>
			<stop  offset="0.2645" style="stop-color:#59B0BC"/>
			<stop  offset="0.3301" style="stop-color:#77B786"/>
			<stop  offset="0.4106" style="stop-color:#95C11F"/>
			<stop  offset="0.465" style="stop-color:#99C21D"/>
			<stop  offset="0.5108" style="stop-color:#A3C616"/>
			<stop  offset="0.5535" style="stop-color:#B5CC03"/>
			<stop  offset="0.5943" style="stop-color:#CCD500"/>
			<stop  offset="0.6337" style="stop-color:#E7E000"/>
			<stop  offset="0.6716" style="stop-color:#FFED00"/>
			<stop  offset="0.6732" style="stop-color:#FFED00"/>
			<stop  offset="0.7075" style="stop-color:#F8E700"/>
			<stop  offset="0.777" style="stop-color:#D0D700"/>
			<stop  offset="0.8745" style="stop-color:#81BB27"/>
			<stop  offset="0.8994" style="stop-color:#65B32E"/>
		</linearGradient>
		<path class="st3" d="M44.98,32.74c0-2-1.62-3.62-3.62-3.62c-2,0-3.62,1.62-3.62,3.62c0,1.82,1.34,3.33,3.1,3.58v3.95h1.05v-3.95
			C43.64,36.07,44.98,34.56,44.98,32.74z"/>
		<linearGradient id="SVGID_4_" gradientUnits="userSpaceOnUse" x1="14.5648" y1="33.2567" x2="42.1349" y2="33.2567">
			<stop  offset="0.0196" style="stop-color:#0097D7"/>
			<stop  offset="0.1955" style="stop-color:#36A9E1"/>
			<stop  offset="0.2183" style="stop-color:#42ABD8"/>
			<stop  offset="0.2645" style="stop-color:#59B0BC"/>
			<stop  offset="0.3301" style="stop-color:#77B786"/>
			<stop  offset="0.4106" style="stop-color:#95C11F"/>
			<stop  offset="0.465" style="stop-color:#99C21D"/>
			<stop  offset="0.5108" style="stop-color:#A3C616"/>
			<stop  offset="0.5535" style="stop-color:#B5CC03"/>
			<stop  offset="0.5943" style="stop-color:#CCD500"/>
			<stop  offset="0.6337" style="stop-color:#E7E000"/>
			<stop  offset="0.6716" style="stop-color:#FFED00"/>
			<stop  offset="0.6732" style="stop-color:#FFED00"/>
			<stop  offset="0.7075" style="stop-color:#F8E700"/>
			<stop  offset="0.777" style="stop-color:#D0D700"/>
			<stop  offset="0.8745" style="stop-color:#81BB27"/>
			<stop  offset="0.8994" style="stop-color:#65B32E"/>
		</linearGradient>
		<path class="st4" d="M32.1,27.72l-2.27-1.45l-0.03-0.02l-0.03,0.02l-2.27,1.45l-0.87,0.55v1.02v5.02v0.85h0.87h1.79h0.01v5.11
			h1.05v-5.11h1.75h0.87v-0.85v-5.02v-1.02L32.1,27.72z M32.1,34.31h-1.79h-1.02h-1.79v-5.58l2.3-1.47l2.3,1.47V34.31z"/>
		<linearGradient id="SVGID_5_" gradientUnits="userSpaceOnUse" x1="14.5648" y1="30.9727" x2="42.1349" y2="30.9727">
			<stop  offset="0.0196" style="stop-color:#0097D7"/>
			<stop  offset="0.1955" style="stop-color:#36A9E1"/>
			<stop  offset="0.2183" style="stop-color:#42ABD8"/>
			<stop  offset="0.2645" style="stop-color:#59B0BC"/>
			<stop  offset="0.3301" style="stop-color:#77B786"/>
			<stop  offset="0.4106" style="stop-color:#95C11F"/>
			<stop  offset="0.465" style="stop-color:#99C21D"/>
			<stop  offset="0.5108" style="stop-color:#A3C616"/>
			<stop  offset="0.5535" style="stop-color:#B5CC03"/>
			<stop  offset="0.5943" style="stop-color:#CCD500"/>
			<stop  offset="0.6337" style="stop-color:#E7E000"/>
			<stop  offset="0.6716" style="stop-color:#FFED00"/>
			<stop  offset="0.6732" style="stop-color:#FFED00"/>
			<stop  offset="0.7075" style="stop-color:#F8E700"/>
			<stop  offset="0.777" style="stop-color:#D0D700"/>
			<stop  offset="0.8745" style="stop-color:#81BB27"/>
			<stop  offset="0.8994" style="stop-color:#65B32E"/>
		</linearGradient>
		<path class="st5" d="M28.26,29.57v2.8h3.09v-2.8H28.26z M29.58,31.92h-0.79v-1.89h0.79V31.92z M30.81,31.92h-0.79v-1.89h0.79
			V31.92z"/>
		<g>
			<linearGradient id="SVGID_6_" gradientUnits="userSpaceOnUse" x1="15.025" y1="42.5905" x2="44.7424" y2="42.5905">
				<stop  offset="0.0196" style="stop-color:#0097D7"/>
				<stop  offset="0.1955" style="stop-color:#36A9E1"/>
				<stop  offset="0.2183" style="stop-color:#42ABD8"/>
				<stop  offset="0.2645" style="stop-color:#59B0BC"/>
				<stop  offset="0.3301" style="stop-color:#77B786"/>
				<stop  offset="0.4106" style="stop-color:#95C11F"/>
				<stop  offset="0.465" style="stop-color:#99C21D"/>
				<stop  offset="0.5108" style="stop-color:#A3C616"/>
				<stop  offset="0.5535" style="stop-color:#B5CC03"/>
				<stop  offset="0.5943" style="stop-color:#CCD500"/>
				<stop  offset="0.6337" style="stop-color:#E7E000"/>
				<stop  offset="0.6716" style="stop-color:#FFED00"/>
				<stop  offset="0.6732" style="stop-color:#FFED00"/>
				<stop  offset="0.7075" style="stop-color:#F8E700"/>
				<stop  offset="0.777" style="stop-color:#D0D700"/>
				<stop  offset="0.8745" style="stop-color:#81BB27"/>
				<stop  offset="0.8994" style="stop-color:#65B32E"/>
			</linearGradient>
			<path class="st6" d="M23.64,44.24c-0.04,0-0.09,0-0.14,0c-1.41-0.04-2.31-0.68-3.11-1.24c-0.78-0.55-1.46-1.03-2.56-1.03
				c-1.15,0-2.23,0.75-2.24,0.76l-0.57-0.8c0.05-0.04,1.34-0.94,2.81-0.94c1.41,0,2.32,0.64,3.12,1.21
				c0.75,0.53,1.47,1.03,2.57,1.06c1.29,0.03,2.21-0.53,3.18-1.13c0.88-0.54,1.79-1.1,2.95-1.17c1.32-0.08,2.41,0.58,3.47,1.21
				c0.93,0.56,1.81,1.09,2.78,1.09c1.12,0,1.92-0.53,2.76-1.09c0.87-0.58,1.77-1.18,3.03-1.18c1.92,0,3,1.06,3.05,1.1l-0.7,0.7
				c-0.03-0.03-0.85-0.81-2.35-0.81c-0.96,0-1.67,0.47-2.49,1.02c-0.88,0.59-1.88,1.26-3.3,1.26c-1.25,0-2.28-0.63-3.29-1.23
				c-0.97-0.59-1.89-1.14-2.9-1.07c-0.92,0.06-1.69,0.53-2.5,1.03C26.25,43.56,25.15,44.24,23.64,44.24z"/>
			<linearGradient id="SVGID_7_" gradientUnits="userSpaceOnUse" x1="15.025" y1="45.7333" x2="44.7424" y2="45.7333">
				<stop  offset="0.0196" style="stop-color:#0097D7"/>
				<stop  offset="0.1955" style="stop-color:#36A9E1"/>
				<stop  offset="0.2183" style="stop-color:#42ABD8"/>
				<stop  offset="0.2645" style="stop-color:#59B0BC"/>
				<stop  offset="0.3301" style="stop-color:#77B786"/>
				<stop  offset="0.4106" style="stop-color:#95C11F"/>
				<stop  offset="0.465" style="stop-color:#99C21D"/>
				<stop  offset="0.5108" style="stop-color:#A3C616"/>
				<stop  offset="0.5535" style="stop-color:#B5CC03"/>
				<stop  offset="0.5943" style="stop-color:#CCD500"/>
				<stop  offset="0.6337" style="stop-color:#E7E000"/>
				<stop  offset="0.6716" style="stop-color:#FFED00"/>
				<stop  offset="0.6732" style="stop-color:#FFED00"/>
				<stop  offset="0.7075" style="stop-color:#F8E700"/>
				<stop  offset="0.777" style="stop-color:#D0D700"/>
				<stop  offset="0.8745" style="stop-color:#81BB27"/>
				<stop  offset="0.8994" style="stop-color:#65B32E"/>
			</linearGradient>
			<path class="st7" d="M23.64,47.38c-0.04,0-0.09,0-0.14,0c-1.41-0.04-2.31-0.68-3.11-1.24c-0.78-0.55-1.46-1.03-2.56-1.03
				c-1.15,0-2.23,0.75-2.24,0.76l-0.57-0.8c0.05-0.04,1.34-0.94,2.81-0.94c1.41,0,2.32,0.64,3.12,1.21
				c0.75,0.53,1.47,1.03,2.57,1.06c1.29,0.03,2.21-0.53,3.18-1.13c0.88-0.54,1.79-1.1,2.95-1.17c1.32-0.08,2.41,0.58,3.47,1.21
				c0.93,0.56,1.81,1.09,2.78,1.09c1.12,0,1.92-0.53,2.76-1.09c0.87-0.58,1.77-1.18,3.03-1.18c1.92,0,3,1.06,3.05,1.1l-0.7,0.7
				c-0.03-0.03-0.85-0.81-2.35-0.81c-0.96,0-1.67,0.47-2.49,1.02c-0.88,0.59-1.88,1.26-3.3,1.26c-1.25,0-2.28-0.63-3.29-1.23
				c-0.97-0.59-1.88-1.14-2.9-1.07c-0.92,0.06-1.69,0.53-2.5,1.03C26.25,46.7,25.15,47.38,23.64,47.38z"/>
			<linearGradient id="SVGID_8_" gradientUnits="userSpaceOnUse" x1="15.025" y1="48.876" x2="44.7424" y2="48.876">
				<stop  offset="0.0196" style="stop-color:#0097D7"/>
				<stop  offset="0.1955" style="stop-color:#36A9E1"/>
				<stop  offset="0.2183" style="stop-color:#42ABD8"/>
				<stop  offset="0.2645" style="stop-color:#59B0BC"/>
				<stop  offset="0.3301" style="stop-color:#77B786"/>
				<stop  offset="0.4106" style="stop-color:#95C11F"/>
				<stop  offset="0.465" style="stop-color:#99C21D"/>
				<stop  offset="0.5108" style="stop-color:#A3C616"/>
				<stop  offset="0.5535" style="stop-color:#B5CC03"/>
				<stop  offset="0.5943" style="stop-color:#CCD500"/>
				<stop  offset="0.6337" style="stop-color:#E7E000"/>
				<stop  offset="0.6716" style="stop-color:#FFED00"/>
				<stop  offset="0.6732" style="stop-color:#FFED00"/>
				<stop  offset="0.7075" style="stop-color:#F8E700"/>
				<stop  offset="0.777" style="stop-color:#D0D700"/>
				<stop  offset="0.8745" style="stop-color:#81BB27"/>
				<stop  offset="0.8994" style="stop-color:#65B32E"/>
			</linearGradient>
			<path class="st8" d="M23.64,50.53c-0.04,0-0.09,0-0.14,0c-1.41-0.04-2.31-0.68-3.11-1.24c-0.78-0.55-1.46-1.03-2.56-1.03
				c-1.15,0-2.23,0.75-2.24,0.76l-0.57-0.8c0.05-0.04,1.34-0.94,2.81-0.94c1.41,0,2.32,0.64,3.12,1.21
				c0.75,0.53,1.47,1.03,2.57,1.06c1.29,0.03,2.21-0.53,3.18-1.13c0.88-0.54,1.79-1.1,2.95-1.17c1.32-0.08,2.41,0.58,3.47,1.21
				c0.93,0.56,1.81,1.09,2.78,1.09c1.12,0,1.92-0.53,2.76-1.09c0.87-0.58,1.77-1.18,3.03-1.18c1.92,0,3,1.06,3.05,1.1l-0.7,0.7
				c-0.03-0.03-0.85-0.81-2.35-0.81c-0.96,0-1.67,0.47-2.49,1.02c-0.88,0.59-1.88,1.26-3.3,1.26c-1.25,0-2.28-0.63-3.29-1.23
				c-0.97-0.59-1.88-1.14-2.9-1.07c-0.92,0.06-1.69,0.53-2.5,1.03C26.25,49.85,25.15,50.53,23.64,50.53z"/>
		</g>
		<g>
			<path class="st9" d="M18.59,22.26v3.3h-0.92V23h-0.95l-0.02,0.54c-0.02,0.47-0.05,0.86-0.12,1.15c-0.06,0.3-0.17,0.52-0.31,0.69
				c-0.15,0.16-0.36,0.24-0.63,0.24c-0.13,0-0.27-0.02-0.42-0.06l0.05-0.76c0.04,0.01,0.08,0.01,0.13,0.01
				c0.12,0,0.22-0.05,0.28-0.15c0.07-0.1,0.11-0.23,0.14-0.41s0.05-0.4,0.06-0.68l0.05-1.32H18.59z"/>
			<path class="st9" d="M21.82,24.51h-1.86c0.04,0.13,0.11,0.23,0.22,0.3c0.11,0.07,0.24,0.11,0.41,0.11c0.12,0,0.23-0.02,0.32-0.05
				c0.09-0.03,0.18-0.09,0.27-0.17l0.47,0.49c-0.25,0.28-0.61,0.42-1.09,0.42c-0.3,0-0.56-0.06-0.79-0.17
				c-0.23-0.11-0.4-0.27-0.53-0.47c-0.12-0.2-0.19-0.43-0.19-0.68c0-0.25,0.06-0.48,0.18-0.68c0.12-0.2,0.29-0.36,0.5-0.47
				c0.21-0.11,0.45-0.17,0.72-0.17c0.25,0,0.49,0.05,0.69,0.16c0.21,0.11,0.37,0.26,0.49,0.46c0.12,0.2,0.18,0.44,0.18,0.71
				C21.84,24.3,21.83,24.37,21.82,24.51z M20.13,23.72c-0.09,0.08-0.15,0.19-0.18,0.32H21c-0.03-0.13-0.08-0.24-0.18-0.32
				c-0.09-0.08-0.21-0.12-0.35-0.12C20.34,23.6,20.22,23.64,20.13,23.72z"/>
			<path class="st9" d="M22.83,25.44c-0.22-0.11-0.4-0.27-0.52-0.47c-0.12-0.2-0.19-0.43-0.19-0.68s0.06-0.48,0.19-0.68
				c0.12-0.2,0.3-0.36,0.52-0.47c0.22-0.11,0.48-0.17,0.76-0.17c0.29,0,0.54,0.06,0.75,0.19c0.21,0.12,0.36,0.3,0.45,0.52
				l-0.69,0.35c-0.12-0.23-0.29-0.34-0.51-0.34c-0.16,0-0.29,0.05-0.4,0.16c-0.11,0.11-0.16,0.25-0.16,0.44
				c0,0.19,0.05,0.34,0.16,0.45c0.11,0.11,0.24,0.16,0.4,0.16c0.22,0,0.39-0.11,0.51-0.34l0.69,0.35c-0.09,0.22-0.24,0.39-0.45,0.52
				c-0.21,0.12-0.46,0.19-0.75,0.19C23.31,25.61,23.06,25.55,22.83,25.44z"/>
			<path class="st9" d="M29.18,25.62l-0.37-0.33c-0.15,0.11-0.33,0.19-0.51,0.25c-0.19,0.06-0.39,0.09-0.59,0.09
				c-0.25,0-0.47-0.04-0.67-0.12c-0.2-0.08-0.36-0.19-0.47-0.33c-0.11-0.14-0.17-0.3-0.17-0.48c0-0.21,0.05-0.39,0.16-0.54
				c0.11-0.16,0.28-0.3,0.52-0.43c-0.21-0.21-0.32-0.44-0.32-0.67c0-0.17,0.05-0.31,0.14-0.44c0.09-0.13,0.22-0.23,0.39-0.3
				c0.17-0.07,0.36-0.11,0.58-0.11c0.31,0,0.55,0.07,0.74,0.21c0.19,0.14,0.28,0.34,0.28,0.58c0,0.17-0.05,0.32-0.15,0.45
				c-0.1,0.13-0.25,0.26-0.46,0.37l0.48,0.43c0.06-0.14,0.11-0.3,0.15-0.47l0.72,0.22c-0.06,0.28-0.16,0.53-0.31,0.75l0.35,0.31
				L29.18,25.62z M28.27,24.81l-0.71-0.63c-0.1,0.06-0.18,0.13-0.23,0.2c-0.05,0.07-0.07,0.14-0.07,0.23c0,0.1,0.05,0.18,0.14,0.25
				c0.09,0.06,0.21,0.1,0.37,0.1C27.95,24.95,28.11,24.9,28.27,24.81z M27.65,22.87c-0.05,0.05-0.08,0.1-0.08,0.18
				c0,0.05,0.02,0.1,0.04,0.15c0.03,0.05,0.09,0.11,0.17,0.19c0.13-0.07,0.21-0.13,0.27-0.19c0.05-0.06,0.08-0.12,0.08-0.18
				c0-0.07-0.02-0.12-0.07-0.16c-0.05-0.04-0.11-0.06-0.2-0.06C27.77,22.81,27.7,22.83,27.65,22.87z"/>
			<path class="st9" d="M34.49,25.57l0-1.75l-0.85,1.42h-0.41l-0.85-1.39v1.71h-0.86v-3.3h0.77l1.16,1.91l1.13-1.91h0.77l0.01,3.3
				H34.49z"/>
			<path class="st9" d="M36.52,25.44c-0.22-0.11-0.39-0.27-0.52-0.47c-0.12-0.2-0.19-0.43-0.19-0.68c0-0.25,0.06-0.48,0.19-0.68
				c0.12-0.2,0.3-0.36,0.51-0.47c0.22-0.11,0.47-0.17,0.74-0.17c0.28,0,0.52,0.06,0.75,0.17s0.39,0.27,0.51,0.47
				c0.12,0.2,0.18,0.43,0.18,0.68s-0.06,0.48-0.18,0.68c-0.12,0.2-0.29,0.36-0.51,0.47c-0.22,0.11-0.47,0.17-0.75,0.17
				C36.99,25.61,36.74,25.55,36.52,25.44z M37.65,24.73c0.1-0.11,0.15-0.26,0.15-0.45c0-0.19-0.05-0.34-0.15-0.44
				c-0.1-0.11-0.23-0.16-0.39-0.16s-0.29,0.05-0.39,0.16c-0.1,0.11-0.15,0.25-0.15,0.44c0,0.19,0.05,0.34,0.15,0.45
				c0.1,0.11,0.23,0.16,0.39,0.16S37.55,24.84,37.65,24.73z"/>
			<path class="st9" d="M41.37,23.13c0.19,0.11,0.34,0.26,0.45,0.46c0.11,0.2,0.17,0.43,0.17,0.7c0,0.26-0.06,0.5-0.17,0.7
				c-0.11,0.2-0.26,0.35-0.45,0.46c-0.19,0.11-0.4,0.16-0.63,0.16c-0.3,0-0.54-0.09-0.71-0.27v1.14h-0.9v-3.47h0.85v0.26
				c0.17-0.2,0.42-0.3,0.75-0.3C40.96,22.97,41.18,23.02,41.37,23.13z M40.93,24.73c0.1-0.11,0.15-0.26,0.15-0.45
				c0-0.19-0.05-0.34-0.15-0.45c-0.1-0.11-0.23-0.16-0.39-0.16s-0.29,0.05-0.39,0.16c-0.1,0.11-0.15,0.26-0.15,0.45
				c0,0.19,0.05,0.34,0.15,0.45c0.1,0.11,0.23,0.16,0.39,0.16S40.83,24.84,40.93,24.73z"/>
			<path class="st9" d="M44.99,24.51h-1.86c0.04,0.13,0.11,0.23,0.22,0.3c0.11,0.07,0.24,0.11,0.41,0.11c0.12,0,0.23-0.02,0.32-0.05
				c0.09-0.03,0.18-0.09,0.27-0.17l0.47,0.49c-0.25,0.28-0.61,0.42-1.09,0.42c-0.3,0-0.56-0.06-0.79-0.17
				c-0.23-0.11-0.4-0.27-0.53-0.47c-0.12-0.2-0.19-0.43-0.19-0.68c0-0.25,0.06-0.48,0.18-0.68c0.12-0.2,0.29-0.36,0.5-0.47
				c0.21-0.11,0.45-0.17,0.72-0.17c0.25,0,0.49,0.05,0.69,0.16s0.37,0.26,0.49,0.46c0.12,0.2,0.18,0.44,0.18,0.71
				C45.01,24.3,45,24.37,44.99,24.51z M43.3,23.72c-0.09,0.08-0.15,0.19-0.18,0.32h1.05c-0.03-0.13-0.08-0.24-0.18-0.32
				c-0.09-0.08-0.21-0.12-0.35-0.12C43.5,23.6,43.39,23.64,43.3,23.72z"/>
		</g>
	</g>
</g>
</svg>
