<svg xmlns="http://www.w3.org/2000/svg" width="9.903" height="14.698"><g data-name="Сгруппировать 276" fill="#879026"><path data-name="Контур 625" d="M4.951 0A4.956 4.956 0 000 4.951c0 3.772 4.533 9.4 4.726 9.64a.29.29 0 00.45 0c.193-.237 4.727-5.868 4.727-9.64A4.957 4.957 0 004.951 0zm0 13.938C4.027 12.738.58 8.055.58 4.951a4.372 4.372 0 018.743 0c0 3.104-3.448 7.788-4.372 8.987z"/><path data-name="Контур 626" d="M4.95 1.14a3.854 3.854 0 103.856 3.854A3.86 3.86 0 004.95 1.14zm0 7.129a3.274 3.274 0 113.274-3.275A3.279 3.279 0 014.95 8.269z"/></g></svg>