<svg xmlns="http://www.w3.org/2000/svg" width="20.216" height="26.103"><path data-name="Контур 561" d="M20.026 19.952a14.854 14.854 0 00-3.8-1.956.386.386 0 00-.14-.048 17.631 17.631 0 00-2.482-.643 3.088 3.088 0 01-.748-2.626 6.5 6.5 0 002.126-3.226 1.042 1.042 0 00.508-.238 2.185 2.185 0 00.671-1.483 1.773 1.773 0 00-.847-1.914v-.116a9.68 9.68 0 00-.067-.784 4.8 4.8 0 00-1.067-2.679V1.754C14.18.654 12.113 0 10.113 0c-1.965 0-4.07.655-4.07 1.632v2.554a.384.384 0 00.009.046 5.3 5.3 0 00-1.137 3.381c0 .067-.008.136-.01.205a1.779 1.779 0 00-.847 1.914 2.182 2.182 0 00.673 1.483 1.035 1.035 0 00.507.238 6.478 6.478 0 002.121 3.219 3.12 3.12 0 01-.751 2.633 17.774 17.774 0 00-2.474.641.392.392 0 00-.133.048 14.772 14.772 0 00-3.806 1.958.466.466 0 00-.192.374v4.264a1.516 1.516 0 001.517 1.513h17.183a1.515 1.515 0 001.516-1.513v-4.264a.466.466 0 00-.193-.374zm-9.916-.692a7.963 7.963 0 01-2.531-1.182 18.376 18.376 0 015.056 0 7.7 7.7 0 01-2.525 1.184zm0-18.333c1.867 0 3.05.6 3.14.827v1.754a8.582 8.582 0 00-6.28 0V1.693a5.365 5.365 0 013.14-.766zm0 2.913c2.344 0 3.727.457 4.152 2.791-.045.01-.088.02-.132.028s-.073.016-.111.022c-.055.012-.111.02-.166.027l-.1.014c-.059.008-.119.012-.178.018-.026 0-.051 0-.077.008-.081 0-.161.006-.236.006h-.225l-.109-.01-.111-.01c-.035 0-.071-.01-.1-.015s-.072-.01-.1-.018-.07-.012-.1-.02-.068-.014-.1-.022-.066-.016-.1-.026l-.1-.023-.093-.032c-.032-.01-.063-.018-.093-.03l-.091-.031-.089-.034-.089-.036-.087-.037-.085-.036c-.028-.014-.058-.025-.087-.041s-.054-.024-.081-.038a.9.9 0 01-.092-.041c-.023-.012-.049-.024-.074-.038l-.159-.077a4.266 4.266 0 00-1.911-.578c-.154 0-.3 0-.441.01l-.107.006a8.404 8.404 0 00-.406.03h-.014a5.57 5.57 0 00-.36.051c-.029.006-.059.01-.091.018a5.605 5.605 0 00-.346.079.1.1 0 01-.026.01c-.1.03-.206.065-.3.1a.858.858 0 00-.081.031c-.1.042-.21.087-.313.139l-.032.018c-.1.049-.188.1-.281.16l-.077.049c-.1.064-.2.133-.3.21h-.006c.494-2.41 2.158-2.632 4.105-2.632zm-4.084 7a.453.453 0 00-.251-.305.461.461 0 00-.2-.044.447.447 0 00-.2.046c-.077-.012-.346-.3-.4-.886s.168-.938.241-.958a.454.454 0 00.412-.069.464.464 0 00.187-.372c0-.105 0-.208.006-.309v-.1a.341.341 0 01.038-.038c.037-.037.073-.069.107-.1s.067-.064.1-.091a1.313 1.313 0 01.1-.091 1.221 1.221 0 01.1-.083l.1-.083c.032-.024.064-.05.1-.076l.095-.071.093-.067c.032-.022.064-.044.095-.063s.064-.042.1-.062.062-.038.091-.055.066-.034.1-.054l.093-.047c.032-.016.066-.03.1-.046l.1-.041c.032-.014.065-.026.1-.038s.061-.024.093-.035.071-.024.107-.034.065-.02.1-.028.075-.017.112-.027l.1-.024c.04-.006.08-.014.121-.022s.066-.01.1-.016.087-.012.131-.018l.1-.011.146-.012.1-.008.172-.008h.091c.091 0 .184-.006.281-.006a3.435 3.435 0 011.5.485c.058.025.115.053.174.083.021.008.038.018.056.026l.127.061c.023.012.047.022.073.033l.116.054c.026.012.054.022.08.033l.12.052c.041.018.056.02.084.032l.122.047.087.03c.044.016.087.03.131.043s.059.02.089.028l.14.04c.03.007.059.015.089.021.052.014.1.024.157.036l.085.018c.059.01.123.022.186.029.019 0 .041.008.065.01a4.7 4.7 0 00.546.038h.291l.111-.008c.065-.006.13-.01.2-.018l.129-.018c.065-.007.129-.015.194-.027l.143-.026c.035-.008.071-.012.106-.02 0 .062.008.123.01.184.006.166.012.333.012.509a.458.458 0 00.6.437c.074.024.295.366.242.962s-.32.874-.4.884a.465.465 0 00-.651.305 5.612 5.612 0 01-2.028 3.2 3.433 3.433 0 01-4.113 0 5.643 5.643 0 01-2.034-3.211zm2.3 4.443a4.269 4.269 0 003.557.006 4.055 4.055 0 00.454 1.822 19.413 19.413 0 00-4.462 0 4.065 4.065 0 00.45-1.828zm-7.4 9.307v-4.028a14.017 14.017 0 012.88-1.52c.03.356.061.706.1 1.059a1.951 1.951 0 00-.852.908 3.147 3.147 0 00-.234 1.883 1.818 1.818 0 00.821 1.381.618.618 0 10.445-.894.488.488 0 00-.073.022 1.138 1.138 0 01-.279-.659 2.266 2.266 0 01.154-1.328.943.943 0 01.636-.558c.583-.1 1.2.6 1.357 1.528a1.142 1.142 0 01-.044.706.424.424 0 00-.071 0 .62.62 0 10.714.7 1.84 1.84 0 00.317-1.558 2.564 2.564 0 00-1.977-2.3c-.041-.4-.077-.8-.11-1.211a16.572 16.572 0 011.84-.465c.51.92 2.191 1.551 3.092 1.83v5.088H1.514a.587.587 0 01-.584-.584zm18.36 0a.589.589 0 01-.59.587h-8.122v-5.088c.9-.279 2.581-.91 3.092-1.83a16.661 16.661 0 011.842.465 54.989 54.989 0 01-.218 2.164 1.258 1.258 0 10.92.113c.079-.639.143-1.294.2-1.955a14.075 14.075 0 012.881 1.52z" fill="#879026"/></svg>