<svg xmlns="http://www.w3.org/2000/svg" width="70.17" height="54.184"><g data-name="Сгруппировать 306" fill="#fff"><g data-name="Сгруппировать 305"><g data-name="Сгруппировать 302"><g data-name="Сгруппировать 300"><path data-name="Контур 853" d="M12.363 38.632a1.087 1.087 0 01-1.087-1.087V25.614a1.087 1.087 0 012.174 0v11.931a1.087 1.087 0 01-1.087 1.087z"/><path data-name="Контур 854" d="M48.013 38.632a1.087 1.087 0 01-1.087-1.087V25.614a1.087 1.087 0 012.174 0v11.931a1.088 1.088 0 01-1.087 1.087z"/><path data-name="Контур 855" d="M34.068 50.47h-7.755a1.087 1.087 0 01-1.087-1.087v-12.8a1.087 1.087 0 011.087-1.087h7.76a1.087 1.087 0 011.087 1.087v12.8a1.087 1.087 0 01-1.092 1.087zm-6.673-2.174h5.586V37.669h-5.586z"/><path data-name="Контур 856" d="M34.068 32.123h-7.755a1.087 1.087 0 01-1.087-1.087v-6.4a1.087 1.087 0 011.087-1.088h7.76a1.087 1.087 0 011.087 1.088v6.4a1.087 1.087 0 01-1.092 1.087zm-6.673-2.175h5.586v-4.226h-5.586z"/><path data-name="Контур 857" d="M53.841 30.563a1.078 1.078 0 01-.664-.228l-23.043-17.83L7.296 30.332a1.088 1.088 0 11-1.339-1.714l23.5-18.347a1.088 1.088 0 011.335 0l23.71 18.347a1.087 1.087 0 01-.666 1.948z"/></g><g data-name="Сгруппировать 301"><path data-name="Контур 858" d="M60.593 23.466a1.088 1.088 0 01-.069-2.173 5.843 5.843 0 00.391-11.623 1.088 1.088 0 01-.944-1.027v-.111a6.8 6.8 0 00-13.545-.222 1.087 1.087 0 01-1.576.864 5.842 5.842 0 00-8.48 5.587 1.088 1.088 0 01-2.171.142 8.018 8.018 0 0110.308-8.2 8.973 8.973 0 0117.56.975 8.019 8.019 0 01-1.4 15.787l-.074.001z"/><path data-name="Контур 859" d="M43.843 14.275a1.089 1.089 0 01-1-.654 4.941 4.941 0 119.061-3.943 1.087 1.087 0 11-1.994.868 2.766 2.766 0 00-5.073 2.207 1.086 1.086 0 01-.563 1.431 1.073 1.073 0 01-.431.091z"/><path data-name="Контур 860" d="M63.589 29.188a4.906 4.906 0 01-2.344-.6 1.087 1.087 0 011.036-1.912 2.766 2.766 0 002.634-4.865 1.088 1.088 0 011.035-1.913 4.94 4.94 0 01-2.361 9.285z"/></g><path data-name="Контур 861" d="M54.431 38.632a1.088 1.088 0 01-1.087-1.087V26.051a9.436 9.436 0 011.521-5.143 1.044 1.044 0 01.07-.1l3.416-4.189a1.087 1.087 0 011.685 1.375l-3.377 4.141a7.263 7.263 0 00-1.14 3.912v11.494a1.088 1.088 0 01-1.088 1.091z"/><path data-name="Контур 862" d="M58.094 34.557a5.766 5.766 0 01-4.1-1.7 1.088 1.088 0 011.538-1.538 3.627 3.627 0 006.191-2.564 1.087 1.087 0 112.174 0 5.807 5.807 0 01-5.803 5.802z"/><path data-name="Контур 863" d="M51.171 23.901a1.085 1.085 0 01-.917-.5l-2.465-3.863a1.087 1.087 0 011.834-1.169l2.464 3.862a1.088 1.088 0 01-.916 1.673z"/></g><g data-name="Сгруппировать 303"><path data-name="Контур 864" d="M49.523 54.184h-4.81a1.088 1.088 0 01-1.088-1.088v-9.774a1.087 1.087 0 01.4-.839l2.408-1.983a1.089 1.089 0 011.382 0l2.408 1.983a1.087 1.087 0 01.4.839v9.774a1.088 1.088 0 01-1.1 1.088zm-3.728-2.175h2.64v-8.177l-1.32-1.088-1.32 1.088z"/><path data-name="Контур 865" d="M57.868 54.184h-4.815a1.088 1.088 0 01-1.087-1.088v-9.774a1.087 1.087 0 01.4-.839l2.408-1.983a1.088 1.088 0 011.382 0l2.408 1.983a1.087 1.087 0 01.4.839v9.774a1.088 1.088 0 01-1.096 1.088zm-3.727-2.175h2.64v-8.177l-1.32-1.088-1.32 1.088z"/><path data-name="Контур 866" d="M66.213 54.184h-4.815a1.087 1.087 0 01-1.087-1.088v-9.774a1.087 1.087 0 01.4-.839l2.407-1.983a1.09 1.09 0 011.383 0l2.407 1.983a1.087 1.087 0 01.4.839v9.774a1.087 1.087 0 01-1.095 1.088zm-3.728-2.175h2.641v-8.177l-1.32-1.088-1.321 1.088z"/></g><g data-name="Сгруппировать 304"><path data-name="Контур 867" d="M8.134 54.184H3.319a1.088 1.088 0 01-1.088-1.088v-9.774a1.087 1.087 0 01.4-.839L5.038 40.5a1.089 1.089 0 011.383 0l2.407 1.983a1.087 1.087 0 01.4.839v9.774a1.087 1.087 0 01-1.094 1.088zm-3.728-2.175h2.641v-8.177l-1.321-1.088-1.32 1.088z"/><path data-name="Контур 868" d="M16.48 54.184h-4.816a1.088 1.088 0 01-1.087-1.088v-9.774a1.087 1.087 0 01.4-.839l2.408-1.983a1.089 1.089 0 011.382 0l2.408 1.983a1.087 1.087 0 01.4.839v9.774a1.088 1.088 0 01-1.095 1.088zm-3.728-2.175h2.64v-8.177l-1.32-1.088-1.32 1.088z"/></g></g><path data-name="Контур 869" d="M19.213 54.173H1.091a1.088 1.088 0 010-2.175h18.122a1.088 1.088 0 110 2.175z"/><path data-name="Контур 870" d="M69.083 54.173H40.956a1.088 1.088 0 010-2.175h28.127a1.088 1.088 0 010 2.175z"/></g></svg>