<svg xmlns="http://www.w3.org/2000/svg" width="11.278" height="11.279"><g data-name="Сгруппировать 275" fill="#879026"><path data-name="Контур 621" d="M5.642 11.279a5.639 5.639 0 115.638-5.641 5.646 5.646 0 01-5.638 5.641zm0-10.7a5.059 5.059 0 105.059 5.059A5.066 5.066 0 005.642.579z"/><path data-name="Контур 622" d="M5.642 6.752a1.113 1.113 0 111.113-1.114 1.114 1.114 0 01-1.113 1.114zm0-1.646a.533.533 0 10.532.532.533.533 0 00-.532-.532z"/><path data-name="Контур 623" d="M8.504 8.158L6.597 6.207a1.127 1.127 0 01-.415.406l1.906 1.95a.29.29 0 10.416-.4z"/><path data-name="Контур 624" d="M5.642 4.527a1.071 1.071 0 01.29.039v-2a.29.29 0 00-.581 0v2a1.074 1.074 0 01.291-.039z"/></g></svg>