<svg xmlns="http://www.w3.org/2000/svg" width="75.385" height="8.371"><g data-name="Сгруппировать 390"><g data-name="Сгруппировать 389"><path data-name="Контур 1521" d="M21.844 8.371c-.114 0-.228 0-.344-.005-3.564-.095-5.866-1.718-7.9-3.15-1.989-1.4-3.707-2.614-6.482-2.614a11.407 11.407 0 00-5.673 1.931L-.002 2.499A13.816 13.816 0 017.118.106c3.566 0 5.88 1.631 7.921 3.07 1.911 1.347 3.716 2.62 6.526 2.7 3.27.086 5.6-1.351 8.068-2.874C31.859 1.628 34.161.208 37.128.023c3.343-.211 6.112 1.464 8.79 3.081 2.36 1.426 4.589 2.772 7.053 2.772 2.844 0 4.859-1.345 6.993-2.768 2.207-1.474 4.49-3 7.691-3a11.343 11.343 0 017.728 2.8l-1.764 1.765a8.863 8.863 0 00-5.964-2.066c-2.444 0-4.234 1.194-6.306 2.577-2.239 1.494-4.777 3.188-8.378 3.188-3.159 0-5.795-1.592-8.343-3.131-2.458-1.485-4.779-2.885-7.344-2.727-2.343.146-4.285 1.344-6.341 2.612-2.471 1.521-5.266 3.245-9.099 3.245z" fill="#879026"/></g></g></svg>