<svg xmlns="http://www.w3.org/2000/svg" width="44.79" height="59.803" viewBox="0 0 44.79 59.803">
  <g id="Сгруппировать_220" data-name="Сгруппировать 220" transform="translate(-4736.137 -356.829)">
    <path id="Контур_553" data-name="Контур 553" d="M4758.534,357.12a22.066,22.066,0,0,0-22.043,22.04c0,12.189,15.737,30.51,20.56,35.836l1.483,1.636,1.482-1.637c4.822-5.325,20.557-23.646,20.557-35.835A22.065,22.065,0,0,0,4758.534,357.12Z" fill="#fff"/>
    <path id="Контур_554" data-name="Контур 554" d="M4758.534,416.632a1.179,1.179,0,0,1-.855-.367c-.88-.929-21.542-22.909-21.542-37.042a22.395,22.395,0,0,1,44.79,0c0,14.133-20.659,36.113-21.538,37.042A1.182,1.182,0,0,1,4758.534,416.632Zm0-57.449a20.064,20.064,0,0,0-20.043,20.04c0,11.654,16.113,30.155,20.042,34.493,3.93-4.34,20.04-22.845,20.04-34.493A20.063,20.063,0,0,0,4758.534,359.183Z" fill="#879026"/>
    <g id="Сгруппировать_219" data-name="Сгруппировать 219">
      <path id="Контур_555" data-name="Контур 555" d="M4754.512,384.486a1.639,1.639,0,1,1,1.639-1.64A1.641,1.641,0,0,1,4754.512,384.486Zm0-2.538a.9.9,0,1,0,.9.9A.9.9,0,0,0,4754.512,381.948Z" fill="#879026"/>
      <path id="Контур_556" data-name="Контур 556" d="M4762.668,384.486a1.639,1.639,0,1,1,1.639-1.64A1.641,1.641,0,0,1,4762.668,384.486Zm0-2.538a.9.9,0,1,0,.9.9A.9.9,0,0,0,4762.668,381.948Z" fill="#879026"/>
      <path id="Контур_557" data-name="Контур 557" d="M4763.935,369.611h-13.079l-.565-2.262a.492.492,0,0,0-.48-.374h-2.684a.494.494,0,1,0,0,.987h2.3l.564,2.262h0l1.854,7.41v0l.67,2.684a.493.493,0,0,0,.479.374h10.941a.494.494,0,1,0,0-.987h-10.554l-.425-1.7h10.979a.5.5,0,0,0,.5-.495V370.1A.5.5,0,0,0,4763.935,369.611Zm-.493,3.705h-1.509l-.68-2.717h2.189Zm-3.12,3.7-.68-2.717h1.519l.678,2.717Zm-2.538,0-.679-2.717h1.518l.679,2.717Zm-2.537,0-.68-2.717h1.519l.679,2.717Zm-.087-6.422.679,2.717h-1.519l-.678-2.717Zm2.536,0,.68,2.717h-1.519l-.678-2.717Zm1.7,2.717-.68-2.717h1.519l.678,2.717Zm-6.773-2.717.678,2.717h-1.518l-.679-2.717Zm-.593,3.7h1.519l.678,2.717h-1.517Zm10.829,2.717-.68-2.717h1.263v2.717Z" fill="#879026"/>
    </g>
  </g>
</svg>
