<svg xmlns="http://www.w3.org/2000/svg" width="44.795" height="59.809" viewBox="0 0 44.795 59.809">
  <g id="Сгруппировать_1" data-name="Сгруппировать 1" transform="translate(-711 -269)">
    <g id="Сгруппировать_214" data-name="Сгруппировать 214" transform="translate(-4591.173 -295.844)">
      <path id="Контур_540" data-name="Контур 540" d="M5324.53,565.14a22.067,22.067,0,0,0-22.043,22.04c0,12.189,15.737,30.511,20.56,35.836l1.483,1.637,1.482-1.638c4.823-5.324,20.557-23.646,20.557-35.835A22.064,22.064,0,0,0,5324.53,565.14Z" fill="#fff"/>
      <path id="Контур_541" data-name="Контур 541" d="M5324.57,624.653a1.173,1.173,0,0,1-.854-.368c-.88-.929-21.543-22.908-21.543-37.041a22.4,22.4,0,1,1,44.795,0c0,14.133-20.663,36.112-21.543,37.041a1.178,1.178,0,0,1-.855.368Zm0-57.45a20.064,20.064,0,0,0-20.042,20.041c0,11.653,16.111,30.154,20.042,34.492,3.929-4.339,20.039-22.845,20.039-34.492A20.061,20.061,0,0,0,5324.57,567.2Z" fill="#879026"/>
    </g>
    <path id="_03-office_101165" data-name="03-office_101165" d="M6,29.9V12.937a2.513,2.513,0,0,1,2.513-2.513h0V7.911A1.257,1.257,0,0,1,9.77,6.654h1.257V1.628a.628.628,0,0,1,1.257,0V6.654h1.257A1.257,1.257,0,0,1,14.8,7.911v2.513h0a2.513,2.513,0,0,1,2.513,2.513v5.026h4.4v-3.77H24.22V12.309h3.77v1.885h.628V29.9ZM13.539,8.539a.628.628,0,0,0-.628-.628H10.4a.628.628,0,0,0-.628.628v1.885h3.77Zm2.513,4.4A1.257,1.257,0,0,0,14.8,11.68H8.513a1.257,1.257,0,0,0-1.257,1.257V28.643h8.8Zm5.654,6.283h-4.4v9.424h4.4Zm5.654-3.77h-4.4V28.643h4.4Zm-2.513,1.885h.628a.628.628,0,0,1,.628.628v.628a.628.628,0,0,1-.628.628h-.628a.628.628,0,0,1-.628-.628v-.628A.628.628,0,0,1,24.848,17.335Zm0,3.77h.628a.628.628,0,0,1,.628.628v.628a.628.628,0,0,1-.628.628h-.628a.628.628,0,0,1-.628-.628v-.628A.628.628,0,0,1,24.848,21.1Zm0,3.77h.628a.628.628,0,0,1,.628.628v.628a.628.628,0,0,1-.628.628h-.628a.628.628,0,0,1-.628-.628V25.5A.628.628,0,0,1,24.848,24.874ZM19.193,21.1h.628a.628.628,0,0,1,.628.628v.628a.628.628,0,0,1-.628.628h-.628a.628.628,0,0,1-.628-.628v-.628A.628.628,0,0,1,19.193,21.1Zm0,3.77h.628a.628.628,0,0,1,.628.628v.628a.628.628,0,0,1-.628.628h-.628a.628.628,0,0,1-.628-.628V25.5A.628.628,0,0,1,19.193,24.874Zm-5.654,1.885h-.628a.628.628,0,0,1-.628-.628V25.5a.628.628,0,0,1,.628-.628h.628a.628.628,0,0,1,.628.628v.628A.628.628,0,0,1,13.539,26.759Zm0-3.77h-.628a.628.628,0,0,1-.628-.628v-.628a.628.628,0,0,1,.628-.628h.628a.628.628,0,0,1,.628.628v.628A.628.628,0,0,1,13.539,22.989Zm0-3.77h-.628a.628.628,0,0,1-.628-.628v-.628a.628.628,0,0,1,.628-.628h.628a.628.628,0,0,1,.628.628v.628A.628.628,0,0,1,13.539,19.22Zm0-3.77h-.628a.628.628,0,0,1-.628-.628v-.628a.628.628,0,0,1,.628-.628h.628a.628.628,0,0,1,.628.628v.628A.628.628,0,0,1,13.539,15.45ZM10.4,26.759H9.77a.628.628,0,0,1-.628-.628V25.5a.628.628,0,0,1,.628-.628H10.4a.628.628,0,0,1,.628.628v.628A.628.628,0,0,1,10.4,26.759Zm0-3.77H9.77a.628.628,0,0,1-.628-.628v-.628A.628.628,0,0,1,9.77,21.1H10.4a.628.628,0,0,1,.628.628v.628A.628.628,0,0,1,10.4,22.989Zm0-3.77H9.77a.628.628,0,0,1-.628-.628v-.628a.628.628,0,0,1,.628-.628H10.4a.628.628,0,0,1,.628.628v.628A.628.628,0,0,1,10.4,19.22Zm0-3.77H9.77a.628.628,0,0,1-.628-.628v-.628a.628.628,0,0,1,.628-.628H10.4a.628.628,0,0,1,.628.628v.628A.628.628,0,0,1,10.4,15.45Z" transform="translate(716 275.1)" fill="#879026" fill-rule="evenodd"/>
  </g>
</svg>
