<svg xmlns="http://www.w3.org/2000/svg" width="44.79" height="59.804" viewBox="0 0 44.79 59.804">
  <g id="Сгруппировать_214" data-name="Сгруппировать 214" transform="translate(-5302.177 -564.849)">
    <path id="Контур_540" data-name="Контур 540" d="M5324.533,565.14a22.067,22.067,0,0,0-22.043,22.04c0,12.189,15.737,30.511,20.56,35.836l1.483,1.637,1.482-1.638c4.823-5.324,20.557-23.646,20.557-35.835A22.064,22.064,0,0,0,5324.533,565.14Z" fill="#fff"/>
    <path id="Контур_541" data-name="Контур 541" d="M5324.574,624.653a1.174,1.174,0,0,1-.854-.368c-.88-.929-21.543-22.908-21.543-37.041a22.4,22.4,0,1,1,44.79,0c0,14.133-20.658,36.112-21.538,37.041A1.176,1.176,0,0,1,5324.574,624.653Zm0-57.45a20.064,20.064,0,0,0-20.042,20.041c0,11.653,16.112,30.154,20.042,34.492,3.929-4.339,20.039-22.845,20.039-34.492A20.062,20.062,0,0,0,5324.574,567.2Z" fill="#879026"/>
    <path id="Контур_542" data-name="Контур 542" d="M5336.1,582.237h-.382v-2.288a.466.466,0,0,0-.466-.465h-2.226v-1.323a.461.461,0,0,0-.466-.466h-2.688a.464.464,0,0,0-.466.466v4.076h-9.671v-4.076a.464.464,0,0,0-.466-.466h-2.688a.461.461,0,0,0-.466.466v1.323h-2.227a.466.466,0,0,0-.465.465v2.288h-.382a1.514,1.514,0,1,0,0,3.028h.382v2.287a.467.467,0,0,0,.465.466h2.227v1.323a.464.464,0,0,0,.466.466h2.688a.468.468,0,0,0,.466-.466v-4.076h9.671v4.076a.468.468,0,0,0,.466.466h2.688a.464.464,0,0,0,.466-.466v-1.323h2.226a.467.467,0,0,0,.466-.466v-2.287h.382a1.514,1.514,0,1,0,0-3.028Zm-23.059,2.1a.582.582,0,1,1,0-1.165h.382v1.165Zm1.313,2.753v-6.671h1.761v6.671Zm4.449,1.789h-1.756V578.626h1.756v10.249Zm.932-4.542v-1.165h9.671v1.165Zm12.359,4.542h-1.756V578.626h1.756v10.249Zm2.692-1.789h-1.76v-6.671h1.76v6.671Zm1.314-2.753h-.382v-1.165h.382a.582.582,0,0,1,0,1.165Z" fill="#879026"/>
  </g>
</svg>
