<svg xmlns="http://www.w3.org/2000/svg" width="44.79" height="59.804" viewBox="0 0 44.79 59.804">
  <g id="Сгруппировать_212" data-name="Сгруппировать 212" transform="translate(-4809.962 -293.831)">
    <path id="Контур_534" data-name="Контур 534" d="M4832.358,294.122a22.067,22.067,0,0,0-22.043,22.04c0,12.189,15.738,30.511,20.561,35.836l1.482,1.637,1.483-1.638c4.822-5.324,20.556-23.646,20.556-35.835A22.064,22.064,0,0,0,4832.358,294.122Z" fill="#fff"/>
    <path id="Контур_535" data-name="Контур 535" d="M4832.359,353.635a1.178,1.178,0,0,1-.855-.368c-.879-.929-21.542-22.908-21.542-37.041a22.4,22.4,0,1,1,44.79,0c0,14.133-20.659,36.112-21.538,37.041A1.178,1.178,0,0,1,4832.359,353.635Zm0-57.45a20.064,20.064,0,0,0-20.043,20.041c0,11.653,16.113,30.154,20.042,34.492,3.93-4.339,20.04-22.845,20.04-34.492A20.063,20.063,0,0,0,4832.359,296.185Z" fill="#879026"/>
    <path id="Контур_536" data-name="Контур 536" d="M4842.726,315.679h-1.837a3.138,3.138,0,0,1,.124-4.313.464.464,0,0,0-.33-.792h-2.291v-6.357a.463.463,0,0,0-.463-.464h-12.7c-2.544,0-2.544,0-2.681.136a.465.465,0,0,0-.057.586,6.15,6.15,0,0,1,0,6.3.465.465,0,0,0,.386.722h1.83a2.172,2.172,0,0,0-.41,1.272v1.633a2.19,2.19,0,0,0,.411,1.272h-3.82a.465.465,0,0,0-.392.712,4.759,4.759,0,0,1,0,4.61.464.464,0,0,0,.392.712h21.842c.879,0,1.567-.965,1.567-2.2v-1.63C4844.293,316.646,4843.6,315.679,4842.726,315.679Zm-19.062-5.1a6.527,6.527,0,0,0,.441-1.313h11.756a.465.465,0,0,0,0-.93h-11.607a7.7,7.7,0,0,0,0-1.407h11.607a.464.464,0,0,0,0-.928H4824.1a6.533,6.533,0,0,0-.441-1.316h13.8v5.894Zm1.557,3.833v-1.633a1.273,1.273,0,0,1,1.272-1.272h13.244a4.026,4.026,0,0,0-.548,1.625h-11.628a.463.463,0,0,0,0,.927h11.628a4.026,4.026,0,0,0,.548,1.625h-13.244A1.273,1.273,0,0,1,4825.221,314.407Zm3.207,2.2v1.624H4822a5.531,5.531,0,0,0-.366-1.624ZM4822,319.161h6.424v1.624h-6.79A5.546,5.546,0,0,0,4822,319.161Zm7.352,1.624v-4.176h.538c.295,0,.639.553.639,1.272v1.63c0,.718-.344,1.274-.639,1.274Zm8.072-1.274c0,.718-.342,1.274-.637,1.274h-5.614a2.864,2.864,0,0,0,.284-1.274v-1.63a2.862,2.862,0,0,0-.283-1.272h5.613c.295,0,.637.553.637,1.272Zm2.968,0c0,.718-.343,1.274-.639,1.274h-1.682a2.874,2.874,0,0,0,.281-1.274v-1.63a2.858,2.858,0,0,0-.281-1.272h1.682c.3,0,.639.553.639,1.272Zm2.97,0c0,.718-.345,1.274-.64,1.274h-1.685a2.867,2.867,0,0,0,.283-1.274v-1.63a2.852,2.852,0,0,0-.283-1.272h1.685c.295,0,.64.553.64,1.272Z" fill="#879026"/>
  </g>
</svg>
