<svg xmlns="http://www.w3.org/2000/svg" width="26.087" height="12.112" viewBox="0 0 26.087 12.112">
  <path id="Контур_1" data-name="Контур 1" d="M5336.1,582.237h-.382v-2.288a.466.466,0,0,0-.466-.465h-2.226v-1.323a.461.461,0,0,0-.466-.466h-2.688a.464.464,0,0,0-.466.466v4.076h-9.671v-4.076a.464.464,0,0,0-.466-.466h-2.688a.461.461,0,0,0-.466.466v1.323h-2.227a.466.466,0,0,0-.465.465v2.288h-.382a1.514,1.514,0,1,0,0,3.028h.382v2.287a.467.467,0,0,0,.465.466h2.227v1.323a.464.464,0,0,0,.466.466h2.688a.468.468,0,0,0,.466-.466v-4.076h9.671v4.076a.468.468,0,0,0,.466.466h2.688a.464.464,0,0,0,.466-.466v-1.323h2.226a.467.467,0,0,0,.466-.466v-2.287h.382a1.514,1.514,0,1,0,0-3.028Zm-23.059,2.1a.582.582,0,1,1,0-1.165h.382v1.165Zm1.313,2.753v-6.671h1.761v6.671Zm4.449,1.789h-1.756V578.626h1.756v10.249Zm.932-4.542v-1.165h9.671v1.165Zm12.359,4.542h-1.756V578.626h1.756v10.249Zm2.692-1.789h-1.76v-6.671h1.76v6.671Zm1.314-2.753h-.382v-1.165h.382a.582.582,0,0,1,0,1.165Z" transform="translate(-5311.529 -577.695)" fill="#879026"/>
</svg>
